<?xml version="1.0" ?><!DOCTYPE svg  PUBLIC '-//W3C//DTD SVG 1.1//EN'  'http://www.w3.org/Graphics/SVG/1.1/DTD/svg11.dtd'><svg xmlns="http://www.w3.org/2000/svg" xmlns:xlink="http://www.w3.org/1999/xlink" xmlns:serif="http://www.serif.com/" width="100%" height="100%" viewBox="0 0 64 64" version="1.1" xml:space="preserve" style="fill-rule:evenodd;clip-rule:evenodd;stroke-linejoin:round;stroke-miterlimit:2;"><g><g transform="matrix(0.916667,0,0,0.916667,-4.33333,-4.33333)"><path d="M16.841,47.696L16.306,47.161L18.721,42.675C19.096,41.98 19.065,41.137 18.641,40.47C17.677,38.954 16.964,37.262 16.56,35.454C16.389,34.684 15.814,34.066 15.058,33.839L10.182,32.377L10.182,31.623L15.058,30.161C15.814,29.934 16.389,29.316 16.56,28.546C16.963,26.738 17.677,25.047 18.641,23.53C19.065,22.864 19.096,22.02 18.721,21.325L16.306,16.839L16.839,16.306L21.325,18.721C22.02,19.096 22.863,19.065 23.53,18.641C25.046,17.677 26.738,16.964 28.546,16.56C29.316,16.389 29.934,15.814 30.161,15.058L31.623,10.182L32.377,10.182L33.839,15.058C34.066,15.814 34.684,16.389 35.454,16.56C37.262,16.963 38.953,17.677 40.47,18.641C41.136,19.065 41.98,19.096 42.675,18.721L47.161,16.306L47.694,16.839C47.127,17.898 47.525,19.219 48.583,19.789C49.644,20.36 50.968,19.963 51.539,18.902L52.306,17.478C52.763,16.63 52.609,15.582 51.928,14.901L49.099,12.072C48.418,11.391 47.37,11.237 46.522,11.694L41.69,14.296C40.425,13.601 39.077,13.039 37.665,12.626C37.666,12.626 36.09,7.373 36.09,7.373C35.813,6.45 34.964,5.818 34,5.818L30,5.818C29.036,5.818 28.187,6.45 27.91,7.373L26.334,12.626C24.923,13.039 23.575,13.602 22.309,14.296C22.31,14.296 17.478,11.694 17.478,11.694C16.63,11.237 15.582,11.391 14.901,12.072L12.072,14.901C11.391,15.582 11.237,16.63 11.694,17.478L14.296,22.31C13.601,23.575 13.039,24.923 12.626,26.335C12.626,26.334 7.373,27.91 7.373,27.91C6.45,28.187 5.818,29.036 5.818,30L5.818,34C5.818,34.964 6.45,35.813 7.373,36.09L12.626,37.666C13.039,39.077 13.602,40.425 14.296,41.691C14.296,41.69 11.694,46.522 11.694,46.522C11.237,47.37 11.391,48.418 12.072,49.099L14.901,51.928C15.582,52.609 16.63,52.763 17.478,52.306L18.81,51.589C19.87,51.018 20.268,49.693 19.697,48.633C19.144,47.606 17.883,47.201 16.841,47.696Z"/></g><path d="M44.194,21.241L42.749,16.425C42.495,15.579 41.717,15 40.833,15L37.167,15C36.283,15 35.505,15.579 35.251,16.425L33.806,21.241C32.513,21.619 31.277,22.135 30.117,22.771C30.118,22.771 25.688,20.386 25.688,20.386C24.911,19.967 23.95,20.108 23.326,20.733L20.733,23.326C20.108,23.95 19.967,24.911 20.386,25.688L22.771,30.118C22.134,31.277 21.619,32.513 21.241,33.807C21.241,33.806 16.425,35.251 16.425,35.251C15.579,35.505 15,36.283 15,37.167L15,40.833C15,41.717 15.579,42.495 16.425,42.749L21.241,44.194C21.619,45.487 22.135,46.723 22.771,47.883C22.771,47.883 20.386,52.312 20.386,52.312C19.967,53.089 20.108,54.05 20.733,54.674L23.326,57.267C23.95,57.892 24.911,58.033 25.688,57.614L30.118,55.229C31.277,55.866 32.513,56.381 33.807,56.76C33.806,56.76 35.251,61.575 35.251,61.575C35.505,62.421 36.283,63 37.167,63L40.833,63C41.717,63 42.495,62.421 42.749,61.575L44.194,56.76C45.487,56.381 46.723,55.865 47.883,55.229C47.883,55.229 52.312,57.614 52.312,57.614C53.089,58.033 54.05,57.892 54.674,57.267L57.267,54.674C57.892,54.05 58.033,53.089 57.614,52.312L55.229,47.883C55.866,46.723 56.381,45.487 56.76,44.193C56.76,44.194 61.575,42.749 61.575,42.749C62.421,42.495 63,41.717 63,40.833L63,37.167C63,36.283 62.421,35.505 61.575,35.251L56.76,33.806C56.381,32.513 55.865,31.277 55.229,30.117C55.229,30.118 57.614,25.688 57.614,25.688C58.033,24.911 57.892,23.95 57.267,23.326L54.674,20.733C54.05,20.108 53.089,19.967 52.312,20.386L47.883,22.771C46.723,22.134 45.487,21.619 44.194,21.241ZM39,29C33.482,29 29,33.48 29,39C29,44.52 33.482,49 39,49C44.52,49 49,44.52 49,39C49,33.48 44.52,29 39,29ZM39,33C42.313,33 45,35.688 45,39C45,42.312 42.313,45 39,45C35.689,45 33.002,42.312 33.002,39C33.002,35.688 35.689,33 39,33Z"/><g transform="matrix(2.03751,0,0,2,-52.2754,-57)"><path d="M35.685,42.945C35.247,42.421 34.982,41.742 34.982,41C34.982,39.344 36.301,38 37.926,38C38.615,38 39.248,38.241 39.749,38.645C40.174,38.987 40.792,38.913 41.128,38.48C41.464,38.047 41.392,37.418 40.967,37.076C40.13,36.402 39.074,36 37.926,36C35.218,36 33.018,38.24 33.018,41C33.018,42.237 33.46,43.37 34.192,44.243C34.544,44.663 35.164,44.713 35.576,44.355C35.988,43.997 36.037,43.365 35.685,42.945Z"/></g></g></svg>