<svg xmlns="http://www.w3.org/2000/svg" viewBox="0 0 24 24"><path d="M21 3.5A3.5 3.5 0 1 0 17.5 7 3.5 3.5 0 0 0 21 3.5M17.5 5a1.5 1.5 0 0 1 0-3 1.5 1.5 0 0 1 0 3M4.29 6.29 3 7.59l-1.29-1.3A1 1 0 0 0 .29 7.71L1.59 9l-1.3 1.29a1 1 0 0 0 1.42 1.42L3 10.41l1.29 1.3a1 1 0 0 0 1.42-1.42L4.41 9l1.3-1.29a1 1 0 0 0-1.42-1.42M22.41 18l1.3-1.29a1 1 0 0 0-1.42-1.42L21 16.59l-1.29-1.3a1 1 0 0 0-1.42 1.42l1.3 1.29-1.3 1.29a1 1 0 0 0 1.42 1.42l1.29-1.3 1.29 1.3a1 1 0 0 0 1.42-1.42ZM11 7a1 1 0 0 0 0 2h.59l-3.26 3.26a6 6 0 0 0 0 8.48C11.46 23.88 11.45 24 12 24a1 1 0 0 0 .71-1.71c-2.84-2.83-4.14-3.68-4.14-5.79S9.41 14 13 10.41V11a1 1 0 0 0 2 0c0-4.59.57-4-4-4"/></svg>