<svg xmlns="http://www.w3.org/2000/svg" id="svg" version="1.1" width="300" height="150" viewBox="310 380 459 280" preserveAspectRatio="xMidYMid meet"><path d="M0 0 C1.22582045 -0.00384115 2.4516409 -0.00768229 3.71460742 -0.01163983 C5.08734816 -0.0108595 6.46008885 -0.00998069 7.83282948 -0.00901413 C9.28149727 -0.01159631 10.73016436 -0.01460905 12.17883044 -0.01801753 C16.17415499 -0.02610831 20.1694616 -0.02787826 24.16479337 -0.028615 C28.46827738 -0.03046199 32.771752 -0.03800758 37.0752306 -0.04475021 C46.49263592 -0.05834946 55.910037 -0.06436091 65.32745051 -0.06876087 C71.2054327 -0.07152098 77.08341324 -0.07575794 82.96139431 -0.08026505 C99.22860295 -0.09246049 115.49581026 -0.1027588 131.76302338 -0.10614014 C132.80479136 -0.1063597 133.84655934 -0.10657927 134.91989606 -0.10680549 C135.96419333 -0.10702377 137.00849061 -0.10724204 138.08443326 -0.10746694 C140.200664 -0.10791041 142.31689475 -0.10835697 144.4331255 -0.10880661 C145.48285472 -0.10902804 146.53258394 -0.10924947 147.61412314 -0.10947761 C164.62271794 -0.11342542 181.63126989 -0.13087771 198.63984814 -0.15416613 C216.09298849 -0.17787075 233.54610734 -0.19034161 250.99926406 -0.19150805 C260.80226588 -0.19242539 270.60521189 -0.19819231 280.40819836 -0.21632767 C288.75629487 -0.23171674 297.10431834 -0.23685623 305.45242634 -0.22858956 C309.71249803 -0.22467863 313.97242258 -0.22563415 318.23247623 -0.23964691 C322.1329236 -0.25235952 326.03311288 -0.25121166 329.93355975 -0.2390562 C331.34411562 -0.23709459 332.7546896 -0.24019905 334.16521998 -0.24890056 C349.29332142 -0.33631131 349.29332142 -0.33631131 355.42067432 4.99861526 C355.97110401 5.66119339 356.5215337 6.32377151 357.08864307 7.00642776 C357.65196339 7.66384964 358.2152837 8.32127151 358.79567432 8.99861526 C362.21950471 13.93109914 362.56731454 18.47510898 362.54356861 24.34756851 C362.54809972 25.17107369 362.55263084 25.99457886 362.55729926 26.84303874 C362.56995201 29.60043977 362.56832232 32.35764351 362.56667042 35.11507034 C362.57265514 37.09295277 362.57946055 39.07083286 362.58702564 41.04870987 C362.60469901 46.42069293 362.6093816 51.79261227 362.61065722 57.16462159 C362.61255661 61.65014274 362.61991465 66.13564906 362.6270014 70.6211645 C362.6432882 81.20507826 362.64817011 91.78895799 362.64674854 102.37288284 C362.64554715 113.287746 362.66664794 124.2024114 362.69823587 135.11722451 C362.72439542 144.49063065 362.73511596 153.86397218 362.73383772 163.23741454 C362.73332798 168.83462613 362.73901814 174.431662 362.76019382 180.0288372 C362.77957056 185.29431576 362.77970438 190.5594509 362.76516056 195.82494164 C362.76307065 197.75504686 362.76778421 199.68517355 362.77988148 201.615242 C362.79535434 204.25534202 362.78601266 206.89426089 362.77061939 209.53433609 C362.78090652 210.29359432 362.79119365 211.05285254 362.8017925 211.83511859 C362.72887132 217.51566622 361.08136859 221.19839909 358.27614307 226.13142776 C354.72271184 224.4408147 352.07931101 222.39621705 349.08864307 219.81892776 C344.16609853 215.63364315 339.11296885 211.6586148 333.96364307 207.75642776 C327.81413329 203.09149522 321.74057161 198.34834348 315.72780323 193.50862503 C311.62266031 190.20481732 307.49085881 186.93832403 303.33864307 183.69392776 C298.16557507 179.6478127 293.05346698 175.53170138 287.96364307 171.38142776 C283.21280653 167.50770316 278.44889841 163.66181423 273.59254932 159.92049026 C270.57734978 157.59171895 267.58312903 155.2367422 264.58864307 152.88142776 C263.991646 152.41204788 263.39464893 151.942668 262.77956104 151.45906448 C261.55522227 150.49640646 260.33093894 149.53367792 259.10670948 148.57088089 C256.1638998 146.25682303 253.21998085 143.94417748 250.27614307 141.63142776 C249.10947076 140.71476829 247.9428041 139.79810161 246.77614307 138.88142776 C246.19864307 138.42767776 245.62114307 137.97392776 245.02614307 137.50642776 C239.77614307 133.38142776 239.77614307 133.38142776 238.02370167 132.00398636 C236.86585133 131.09459342 235.7073305 130.18605346 234.54811573 129.27840042 C231.49029528 126.88228921 228.44814424 124.46910661 225.42458057 122.02986526 C224.79293995 121.52390823 224.16129932 121.0179512 223.51051807 120.49666214 C222.30043163 119.52681344 221.09445878 118.55180226 219.89333057 117.57088089 C217.12005101 115.35683577 214.86503815 113.5690979 211.27614307 113.13142776 C211.27614307 113.79142776 211.27614307 114.45142776 211.27614307 115.13142776 C211.8149712 115.36990433 212.35379932 115.60838089 212.90895557 115.85408401 C215.91537153 117.47635797 218.45595577 119.4685636 221.15114307 121.56892776 C222.00107838 122.22937088 222.00107838 122.22937088 222.86818409 122.90315628 C224.67403741 124.30853492 226.47557121 125.71929061 228.27614307 127.13142776 C228.85251514 127.58259964 229.42888721 128.03377151 230.02272511 128.49861526 C234.70503794 132.16499205 239.37608652 135.84561375 244.04665089 139.52693558 C245.81017936 140.9165298 247.57425731 142.30542224 249.33864307 143.69392776 C249.92081593 144.15235062 250.50298878 144.61077347 251.10280323 145.08308792 C254.90545672 148.0715686 258.74017431 151.01449632 262.58864307 153.94392776 C268.48544094 158.44511985 274.19791702 163.15686883 279.91042042 167.88850784 C286.60558457 173.4257883 293.41472266 178.80244439 300.27614307 184.13142776 C301.73583058 185.26677746 303.19546322 186.40219771 304.65504932 187.53767776 C306.96976965 189.33790639 309.28459539 191.13799903 311.5996294 192.93782425 C322.04988283 201.06332731 332.46550216 209.2140214 342.68483448 217.62971878 C346.77022284 220.97646136 350.94788965 224.10444279 355.27614307 227.13142776 C353.62810177 230.97750959 351.71695741 232.58073702 347.8562392 234.3469131 C342.40717856 236.00377694 336.73203765 235.68633897 331.08731556 235.65282059 C329.6431372 235.65886717 328.19896525 235.66664793 326.75480455 235.67600572 C322.79959289 235.6965379 318.84474437 235.69220953 314.88950312 235.68364453 C310.61877177 235.67870498 306.34812728 235.69674453 302.07742786 235.71171951 C293.71609082 235.73720301 285.35488227 235.74080229 276.99351294 235.73611899 C270.19695056 235.73255142 263.40042716 235.73605451 256.60386944 235.74456787 C255.15232843 235.74635344 255.15232843 235.74635344 253.67146335 235.74817508 C251.7055372 235.7505986 249.73961105 235.75302687 247.77368491 235.75545983 C229.34239301 235.77720654 210.91117432 235.77288768 192.4798783 235.76069014 C175.62167373 235.75035026 158.76370023 235.77286732 141.90554137 235.81088658 C124.59004273 235.84963755 107.27465344 235.86615654 89.95911115 235.85864007 C80.23991823 235.85481532 70.52092203 235.85979808 60.80176449 235.88806915 C52.52844615 235.91189135 44.25544565 235.91471296 35.98212297 235.89048882 C31.76211546 235.87870752 27.54268937 235.87652101 23.32272053 235.90049362 C19.4566629 235.92220035 15.59167247 235.91602135 11.72566491 235.88797025 C10.33006053 235.88267298 8.93437267 235.88742072 7.5388502 235.90344198 C-0.3696332 235.9879061 -5.82124444 235.41633706 -12.25839716 230.61292779 C-13.72385693 229.13142776 -13.72385693 229.13142776 -13.72385693 227.13142776 C-11.78056826 225.4683915 -9.82624314 223.91885204 -7.78635693 222.38142776 C-2.12631285 218.03419743 3.41550669 213.57161807 8.90114307 209.00642776 C14.55633222 204.315177 20.28601245 199.81779616 26.20192432 195.45955276 C29.88678222 192.66898694 33.45470996 189.752314 37.02614307 186.81892776 C42.34750453 182.45204784 47.7433045 178.2269628 53.27614307 174.13142776 C59.38886509 169.60486651 65.31581123 164.89595864 71.19264698 160.06819534 C76.8070957 155.47199283 82.5467079 151.05616085 88.32472706 146.668293 C92.97264507 143.1368264 97.56147618 139.54376799 102.10426807 135.87752151 C104.94417099 133.59436215 107.82209401 131.36273627 110.70583057 129.13533401 C112.76376361 127.53089686 114.80779484 125.91245512 116.84645557 124.28377151 C117.47390675 123.78466263 118.10135792 123.28555374 118.74782276 122.77132034 C119.99856089 121.77583162 121.24669646 120.77706258 122.49196339 119.77473831 C125.07456588 117.72433692 127.12144362 116.18299425 130.27614307 115.13142776 C129.94614307 114.47142776 129.61614307 113.81142776 129.27614307 113.13142776 C126.06690423 114.58686488 123.55558304 116.39556486 120.83864307 118.63142776 C116.96723598 121.77836101 113.05403322 124.85366681 109.08864307 127.88142776 C104.26636514 131.56892556 99.50693974 135.32736959 94.77614307 139.13142776 C89.63018857 143.26920867 84.43829863 147.33520062 79.19020557 151.34236526 C75.00500895 154.54761341 70.88426975 157.82815856 66.77614307 161.13142776 C61.63018222 165.26920037 56.43829868 169.33520058 51.19020557 173.34236526 C46.3587255 177.04257196 41.61542805 180.84834396 36.8730669 184.6617012 C32.77363529 187.95141431 28.63847759 191.18803253 24.46364307 194.38142776 C19.0060545 198.55680194 13.62691573 202.82023379 8.27614307 207.13142776 C-7.47458532 219.8054323 -7.47458532 219.8054323 -14.72385693 225.13142776 C-17.33843554 224.17274894 -18.49855271 223.54923797 -19.83953476 221.06248474 C-20.96722507 217.324792 -21.01021285 213.78823307 -20.99801159 209.92201614 C-21.00324827 209.09921654 -21.00848495 208.27641693 -21.01388031 207.428684 C-21.02887321 204.67362482 -21.02958531 201.91875149 -21.03025341 199.16365433 C-21.03787542 197.18739382 -21.04630299 195.21113627 -21.05547619 193.23488235 C-21.07742512 187.86697102 -21.08622075 182.49911665 -21.09130263 177.1311655 C-21.09494602 173.77634442 -21.10118602 170.42153826 -21.10830402 167.06672287 C-21.13280079 155.35944335 -21.14585072 143.65220816 -21.14939404 131.94490433 C-21.15302852 121.03797366 -21.18291719 110.13132454 -21.22479862 99.22447991 C-21.25950908 89.85615331 -21.27494262 80.48791996 -21.27564007 71.11952949 C-21.27643268 65.52615137 -21.28516419 59.93305997 -21.31363773 54.33974838 C-21.33983078 49.07667655 -21.34201642 43.81412889 -21.32598209 38.55102158 C-21.32416855 36.62294242 -21.33084972 34.69483303 -21.3468008 32.766819 C-21.49376694 13.84425388 -21.49376694 13.84425388 -15.72385693 7.13142776 C-13.55588818 4.97517776 -13.55588818 4.97517776 -11.53635693 3.63142776 C-10.86217724 3.16736526 -10.18799755 2.70330276 -9.49338818 2.22517776 C-6.10132316 0.12853713 -4.00022079 0.00468309 0 0 Z " transform="translate(346.72385692596436,391.8685722351074)" style="fill: #757177;"/><path d="M0 0 C3.21033054 0.28944173 4.34279644 1.09415137 6.80371094 3.12963867 C7.55910156 3.7387207 8.31449219 4.34780273 9.09277344 4.9753418 C9.86878906 5.62051758 10.64480469 6.26569336 11.44433594 6.93041992 C22.53032824 16.0528763 31.01746801 21.21740031 45.69433594 20.24291992 C55.59044451 19.08890087 62.35463 12.3932054 69.69433594 6.24291992 C71.20407969 5.00015746 72.72255676 3.76776151 74.25683594 2.55541992 C74.815 2.09780273 75.37316406 1.64018555 75.94824219 1.16870117 C78.54498198 -0.20809375 79.76730878 -0.30096739 82.69433594 0.24291992 C85.40530924 1.95426833 87.77493158 4.02164524 90.19433594 6.11791992 C91.62805181 7.32245079 93.06296252 8.52556082 94.49902344 9.72729492 C95.20897461 10.32606445 95.91892578 10.92483398 96.65039062 11.54174805 C99.482397 13.89882167 102.38802063 16.13522276 105.31933594 18.36791992 C110.40611731 22.24894571 115.4477683 26.18162477 120.47094727 30.14453125 C124.28881427 33.15186008 128.13898966 36.1123887 132.00683594 39.05541992 C137.90373376 43.55647323 143.61611674 48.26836667 149.32861328 53 C156.02377743 58.53728046 162.83291552 63.91393655 169.69433594 69.24291992 C171.15402345 70.37826962 172.61365608 71.51368987 174.07324219 72.64916992 C176.38796251 74.44939854 178.70278826 76.24949118 181.01782227 78.04931641 C191.46807569 86.17481947 201.88369502 94.32551356 212.10302734 102.74121094 C216.1884157 106.08795352 220.36608251 109.21593495 224.69433594 112.24291992 C223.04629463 116.08900174 221.13515027 117.69222918 217.27443206 119.45840526 C211.82537142 121.1152691 206.15023052 120.79783113 200.50550842 120.76431274 C199.06133007 120.77035933 197.61715811 120.77814008 196.17299742 120.78749788 C192.21778576 120.80803006 188.26293724 120.80370169 184.30769598 120.79513669 C180.03696463 120.79019713 175.76632014 120.80823669 171.49562073 120.82321167 C163.13428369 120.84869517 154.77307514 120.85229445 146.4117058 120.84761114 C139.61514342 120.84404358 132.81862002 120.84754666 126.0220623 120.85606003 C124.57052129 120.8578456 124.57052129 120.8578456 123.08965622 120.85966723 C121.12373006 120.86209076 119.15780392 120.86451903 117.19187777 120.86695199 C98.76058588 120.88869869 80.32936718 120.88437984 61.89807116 120.87218229 C45.03986659 120.86184242 28.18189309 120.88435947 11.32373423 120.92237873 C-5.9917644 120.96112971 -23.3071537 120.9776487 -40.62269598 120.97013223 C-50.3418889 120.96630748 -60.06088511 120.97129023 -69.78004265 120.99956131 C-78.05336098 121.02338351 -86.32636149 121.02620512 -94.59968417 121.00198098 C-98.81969168 120.99019968 -103.03911777 120.98801316 -107.25908661 121.01198578 C-111.12514423 121.03369251 -114.99013467 121.02751351 -118.85614223 120.99946241 C-120.25174661 120.99416514 -121.64743447 120.99891287 -123.04295694 121.01493414 C-130.95144033 121.09939826 -136.40305158 120.52782922 -142.8402043 115.72441995 C-144.30566406 114.24291992 -144.30566406 114.24291992 -144.30566406 112.24291992 C-142.36237539 110.57988366 -140.40805027 109.0303442 -138.36816406 107.49291992 C-132.70811999 103.14568959 -127.16630045 98.68311023 -121.68066406 94.11791992 C-116.02547491 89.42666916 -110.29579469 84.92928832 -104.37988281 80.57104492 C-100.69502492 77.78047909 -97.12709717 74.86380615 -93.55566406 71.93041992 C-88.2343026 67.56353999 -82.83850264 63.33845496 -77.30566406 59.24291992 C-71.19294205 54.71635867 -65.26599591 50.0074508 -59.38916016 45.1796875 C-53.77471144 40.58348499 -48.03509923 36.16765301 -42.25708008 31.77978516 C-37.60916207 28.24831856 -33.02033095 24.65526015 -28.47753906 20.98901367 C-25.63929298 18.70718634 -22.76196212 16.47792795 -19.88378906 14.24682617 C-16.51701479 11.62992435 -13.16040963 9.00021585 -9.80566406 6.36791992 C-9.18143555 5.8789624 -8.55720703 5.39000488 -7.9140625 4.88623047 C-1.95271871 0.20573434 -1.95271871 0.20573434 0 0 Z " transform="translate(477.3056640625,506.757080078125)" style="fill: #676368;"/><path d="M0 0 C3.72132614 2.16077001 5.06384501 6.37769002 6.9375 10.125 C7.0418662 12.75198549 7.08529633 15.35284512 7.08467102 17.9803772 C7.08834771 18.8013191 7.0920244 19.622261 7.0958125 20.46807992 C7.10687598 23.23474831 7.11069771 26.00137918 7.11450195 28.76806641 C7.12076469 30.74550497 7.12741132 32.72294234 7.13441467 34.70037842 C7.15184426 40.08491884 7.16238218 45.46945036 7.1706202 50.85401201 C7.17576715 54.21734682 7.18184308 57.58067884 7.18813133 60.94401169 C7.20719051 71.46469351 7.22141902 81.98536828 7.2297433 92.50606406 C7.23951362 104.6543752 7.26582483 116.80250404 7.30624419 128.95075095 C7.33640235 138.33682747 7.35121197 147.72285173 7.35452431 157.10897577 C7.35687551 162.71630391 7.36584487 168.32343745 7.39098549 173.93071365 C7.41426524 179.20844857 7.4184997 184.48586077 7.40822411 189.76363373 C7.40772858 191.6985799 7.41405384 193.63354194 7.42778015 195.56843948 C7.44550283 198.21525204 7.43839123 200.86090695 7.42524719 203.50772095 C7.43621644 204.26902553 7.44718568 205.03033012 7.45848733 205.81470454 C7.39053447 211.50331104 5.74798785 215.18557326 2.9375 220.125 C-0.61593124 218.43438693 -3.25933207 216.38978929 -6.25 213.8125 C-11.17254454 209.62721539 -16.22567422 205.65218704 -21.375 201.75 C-27.52450978 197.08506746 -33.59807146 192.34191572 -39.61083984 187.50219727 C-43.71598276 184.19838956 -47.84778426 180.93189627 -52 177.6875 C-57.173068 173.64138494 -62.28517609 169.52527361 -67.375 165.375 C-72.12583654 161.5012754 -76.88974466 157.65538647 -81.74609375 153.9140625 C-84.76129329 151.58529119 -87.75551405 149.23031443 -90.75 146.875 C-91.34699707 146.40562012 -91.94399414 145.93624023 -92.55908203 145.45263672 C-93.7834208 144.48997869 -95.00770413 143.52725015 -96.23193359 142.56445312 C-99.17474327 140.25039526 -102.11866222 137.93774971 -105.0625 135.625 C-106.22917232 134.70834053 -107.39583898 133.79167385 -108.5625 132.875 C-109.14 132.42125 -109.7175 131.9675 -110.3125 131.5 C-112.0625 130.125 -113.8125 128.75 -115.5625 127.375 C-116.14112793 126.92068604 -116.71975586 126.46637207 -117.31591797 125.99829102 C-118.47246033 125.0889325 -119.6277534 124.17798265 -120.78173828 123.26538086 C-123.84449696 120.84679788 -126.9294698 118.46638748 -130.0546875 116.12890625 C-130.704375 115.63648438 -131.3540625 115.1440625 -132.0234375 114.63671875 C-133.27352185 113.69022631 -134.53109742 112.75352542 -135.796875 111.828125 C-137.4921875 110.53515625 -137.4921875 110.53515625 -140.0625 108.125 C-140.0625 104.125 -140.0625 104.125 -138.4375 102.40625 C-137.261875 101.52453125 -137.261875 101.52453125 -136.0625 100.625 C-135.14339844 99.92632812 -134.22429688 99.22765625 -133.27734375 98.5078125 C-132.76284668 98.12657227 -132.24834961 97.74533203 -131.71826172 97.35253906 C-129.97076465 96.05698978 -128.23674585 94.74476824 -126.50390625 93.4296875 C-118.36748488 87.27335482 -110.14295307 81.23690715 -101.92016602 75.19677734 C-96.37868202 71.11773115 -90.91750377 66.95169494 -85.48046875 62.734375 C-81.33168274 59.54280964 -77.09855513 56.4664507 -72.875 53.375 C-65.60346438 48.04788101 -58.44973978 42.5893747 -51.35205078 37.03320312 C-46.25306251 33.04259232 -41.10610614 29.13072097 -35.9140625 25.26171875 C-32.7990647 22.92760396 -29.708442 20.56301123 -26.625 18.1875 C-26.09028076 17.77588623 -25.55556152 17.36427246 -25.00463867 16.94018555 C-22.17347703 14.75867325 -19.34797228 12.57011404 -16.52734375 10.375 C-15.94718506 9.92503662 -15.36702637 9.47507324 -14.76928711 9.01147461 C-13.15715741 7.76092685 -11.54725809 6.50750536 -9.9375 5.25390625 C-3.09568597 0.18761733 -3.09568597 0.18761733 0 0 Z " transform="translate(702.0625,397.875)" style="fill: #676368;"/><path d="M0 0 C0.33 0.66 0.66 1.32 1 2 C1.70898438 2.09925781 2.41796875 2.19851563 3.1484375 2.30078125 C7.08997694 3.26726832 9.60005687 5.61755772 12.625 8.1875 C18.49138778 13.02980805 24.47938841 17.6423547 30.625 22.125 C37.07773921 26.84137507 43.45955754 31.62344662 49.77734375 36.51953125 C53.40516906 39.32362018 57.07717593 42.06777186 60.75 44.8125 C66.44397193 49.06903832 72.10777056 53.36261095 77.75 57.6875 C85.18284877 63.3833831 92.65986795 69.01746744 100.16650391 74.61572266 C113.92796892 84.8825703 127.61977489 95.23821424 141 106 C133.56274552 112.50209674 126.08877846 118.80381384 118.125 124.66015625 C114.54053161 127.34402695 111.04887527 130.1281812 107.5625 132.9375 C102.91537059 136.68018619 98.2432658 140.37985063 93.5 144 C88.78088683 147.60309195 84.12705549 151.27946967 79.5 155 C74.35403914 159.13777261 69.16215561 163.20377281 63.9140625 167.2109375 C59.08258243 170.91114419 54.33928498 174.7169162 49.59692383 178.53027344 C45.49749221 181.81998655 41.36233451 185.05660477 37.1875 188.25 C31.72991143 192.42537418 26.35077266 196.68880603 21 201 C5.24927161 213.67400453 5.24927161 213.67400453 -2 219 C-4.61400263 218.04153237 -5.77462649 217.41761137 -7.1160984 214.93189812 C-8.24447354 211.18908223 -8.28306486 207.6482382 -8.26742554 203.77713013 C-8.27195665 202.95291939 -8.27648776 202.12870865 -8.28115618 201.27952182 C-8.29380891 198.51978686 -8.29217925 195.76024903 -8.29052734 193.00048828 C-8.29651202 191.02098334 -8.30331742 189.04148073 -8.31088257 187.0619812 C-8.32855525 181.6859332 -8.33323847 176.30994885 -8.33451414 170.93387461 C-8.33641337 166.44577387 -8.34377113 161.95768796 -8.35085833 157.46959293 C-8.36714446 146.8809254 -8.37202705 136.29229189 -8.37060547 125.70361328 C-8.36940373 114.78077781 -8.39051155 103.85813984 -8.4220928 92.93535435 C-8.44824271 83.55686835 -8.45897331 74.17844691 -8.45769465 64.79992473 C-8.45718467 59.19883271 -8.46288792 53.59791621 -8.48405075 47.9968605 C-8.50341156 42.72892273 -8.50357225 37.46132832 -8.48901749 32.19337845 C-8.48692567 30.26124063 -8.49165244 28.32908144 -8.5037384 26.39698029 C-8.51918412 23.75652912 -8.50988753 21.11726296 -8.49447632 18.47683716 C-8.50476344 17.71466609 -8.51505057 16.95249502 -8.52564943 16.16722786 C-8.45532841 10.70445534 -7.08602899 7.52183889 -4 3 C-1.75 1.0625 -1.75 1.0625 0 0 Z " transform="translate(334,398)" style="fill: #666368;"/><path d="M0 0 C0.99 0.33 1.98 0.66 3 1 C3 1.66 3 2.32 3 3 C1.15905136 4.56266571 -0.68535051 6.00594594 -2.625 7.4375 C-3.83132844 8.3455586 -5.03703781 9.25444009 -6.2421875 10.1640625 C-7.17949707 10.86837402 -7.17949707 10.86837402 -8.13574219 11.58691406 C-11.039528 13.78795024 -13.89351834 16.05063793 -16.75 18.3125 C-21.91542939 22.391043 -27.13395162 26.39425366 -32.375 30.375 C-38.68097942 35.16984623 -44.85605428 40.10002283 -50.97998047 45.12451172 C-55.74491648 49.01905431 -60.59528035 52.78347382 -65.5 56.5 C-71.85954296 61.31909125 -78.08461518 66.27595762 -84.25732422 71.33154297 C-89.36296708 75.50543449 -94.55578015 79.54505381 -99.796875 83.546875 C-108.26804057 90.0174701 -116.60405997 96.66610891 -124.9375 103.3125 C-125.53997559 103.79187012 -126.14245117 104.27124023 -126.76318359 104.76513672 C-127.63644287 105.46340576 -127.63644287 105.46340576 -128.52734375 106.17578125 C-129.0982373 106.63162598 -129.66913086 107.0874707 -130.25732422 107.55712891 C-131.48217666 108.57126143 -132.67985232 109.61868171 -133.85595703 110.68896484 C-134.46165527 111.23891113 -135.06735352 111.78885742 -135.69140625 112.35546875 C-136.23095947 112.86102295 -136.7705127 113.36657715 -137.32641602 113.88745117 C-139 115 -139 115 -143 115 C-141.47450337 110.85936629 -138.50426861 108.82077355 -135.0625 106.3125 C-133.87391751 105.42332015 -132.68643393 104.53266966 -131.5 103.640625 C-130.90703125 103.19654297 -130.3140625 102.75246094 -129.703125 102.29492188 C-127.27112798 100.44582323 -124.91618935 98.50989774 -122.5625 96.5625 C-114.06691596 89.55888355 -105.37504065 82.80665233 -96.625 76.125 C-91.64948708 72.32429285 -86.78245725 68.40296229 -81.9375 64.4375 C-76.29185278 59.8171743 -70.56607991 55.36578646 -64.703125 51.0234375 C-61.39240955 48.54518519 -58.17816127 45.96100724 -54.9609375 43.36328125 C-51.00314856 40.20436 -47.00126347 37.10356243 -43 34 C-37.43518948 29.68266052 -31.89833488 25.33742535 -26.4140625 20.91796875 C-22.94908923 18.16505309 -19.43048804 15.48243545 -15.9074707 12.80444336 C-13.16039617 10.70532143 -10.46340681 8.57115715 -7.83203125 6.328125 C-6.85621094 5.49796875 -5.88039063 4.6678125 -4.875 3.8125 C-4.00617188 3.05582031 -3.13734375 2.29914063 -2.2421875 1.51953125 C-1.50226563 1.01808594 -0.76234375 0.51664062 0 0 Z " transform="translate(474,504)" style="fill: #EDEBEC;"/><path d="M0 0 C4.86369977 0.45285845 7.80245819 2.86287404 11.4375 5.875 C12.68600466 6.88305191 13.93470812 7.89085762 15.18359375 8.8984375 C16.13468018 9.6733252 16.13468018 9.6733252 17.10498047 10.46386719 C20.04219088 12.84481642 23.02162192 15.17092263 26 17.5 C27.16689853 18.41637149 28.3335646 19.33303908 29.5 20.25 C30.0775 20.70375 30.655 21.1575 31.25 21.625 C33 23 34.75 24.375 36.5 25.75 C37.07782227 26.2039917 37.65564453 26.6579834 38.25097656 27.12573242 C39.41443323 28.03990015 40.57784489 28.95412516 41.74121094 29.8684082 C44.70661899 32.198787 47.67286857 34.52808115 50.640625 36.85546875 C56.57656362 41.51211026 62.49604441 46.18647901 68.37890625 50.91015625 C71.55010433 53.43860777 74.74380033 55.93757889 77.9375 58.4375 C82.18692245 61.76479721 86.39914519 65.12742883 90.5625 68.5625 C94.9569072 72.17953399 99.43498165 75.674746 103.95556641 79.13134766 C109.15417015 83.10782886 114.30134672 87.14748268 119.44140625 91.19921875 C121.85985602 93.10549475 124.2847884 95.00307345 126.71484375 96.89453125 C142.00151103 108.8059574 142.00151103 108.8059574 145 112 C145 112.66 145 113.32 145 114 C139.93718904 112.44221201 136.47906713 109.34822776 132.5 106 C131.06622164 104.81375222 129.63131165 103.62887096 128.1953125 102.4453125 C127.13038574 101.56601074 127.13038574 101.56601074 126.04394531 100.66894531 C123.19834196 98.34542112 120.29750005 96.10056478 117.375 93.875 C111.13136518 89.10951301 104.95268625 84.26585346 98.78369141 79.40429688 C96.97588854 77.98101709 95.1660235 76.56040208 93.35546875 75.140625 C85.28315353 68.81014449 77.23090281 62.45800945 69.28515625 55.96875 C62.00301699 50.02407469 54.67962644 44.16052869 47.20703125 38.45703125 C43.80145592 35.85597202 40.42973631 33.21291606 37.0625 30.5625 C36.47952148 30.10399658 35.89654297 29.64549316 35.29589844 29.1730957 C32.38251756 26.88027621 29.47268903 24.58305913 26.56640625 22.28125 C25.41949174 21.37472044 24.27235628 20.46847036 23.125 19.5625 C22.56288818 19.11793457 22.00077637 18.67336914 21.42163086 18.21533203 C18.17299891 15.66051603 14.88873583 13.16403642 11.5625 10.7109375 C10.82370605 10.16493896 10.08491211 9.61894043 9.32373047 9.05639648 C7.87913257 7.99275795 6.43034252 6.93478527 4.97705078 5.88305664 C3.28240834 4.63571073 1.63582994 3.32353513 0 2 C0 1.34 0 0.68 0 0 Z " transform="translate(558,505)" style="fill: #EFEDEE;"/><path d="M0 0 C0.99 0.33 1.98 0.66 3 1 C1.5361389 5.39158329 -0.97831338 5.87947433 -5 8 C-4.66275164 4.88045262 -4.3790035 3.3790035 -2.125 1.125 C-1.42375 0.75375 -0.7225 0.3825 0 0 Z " transform="translate(455,519)" style="fill: #E6E6E7;"/><path d="M0 0 C0.99 0.33 1.98 0.66 3 1 C1.68 2.65 0.36 4.3 -1 6 C-1.99 5.67 -2.98 5.34 -4 5 C-2.68 3.35 -1.36 1.7 0 0 Z " transform="translate(422,545)" style="fill: #F0EEEE;"/></svg>