<svg xmlns="http://www.w3.org/2000/svg" id="Layer_1" data-name="Layer 1" viewBox="0 0 500 500"><defs><style>.cls-4{fill:none;stroke:#000;stroke-linecap:round;stroke-linejoin:round;stroke-width:20px}</style></defs><rect width="123.83" height="98.36" x="10.65" y="391.14" class="cls-4" rx="17.56" ry="17.56"/><path d="M50.31 440.32h44.5" class="cls-4"/><rect width="123.83" height="98.36" x="187.37" y="391.14" class="cls-4" rx="17.56" ry="17.56"/><path d="M227.04 440.32h44.5" class="cls-4"/><rect width="123.83" height="98.36" x="365.53" y="391.14" class="cls-4" rx="17.56" ry="17.56"/><path d="M405.19 440.32h44.5M250.18 262.87v61.77H82.32a9.76 9.76 0 0 0-9.76 9.76v56.74M250.18 262.87v61.77H418a9.76 9.76 0 0 1 9.76 9.76v56.74M249.29 391.14v-66.5M345 110.2a99.3 99.3 0 0 0-9.83-23.73l16.23-25.26L338.17 48l-1.33-1.33-13.23-13.25-25.26 16.28a99 99 0 0 0-23.73-9.83l-6.35-29.37H229l-6.35 29.37a98.8 98.8 0 0 0-23.75 9.83l-25.26-16.28-13.24 13.23-1.32 1.35-13.23 13.21 16.28 25.26a99 99 0 0 0-9.83 23.73l-29.37 6.35v39.3l29.37 6.35a98.8 98.8 0 0 0 9.83 23.72l-16.28 25.26 13.23 13.24 1.32 1.32L173.64 239l25.26-16.28a98.8 98.8 0 0 0 23.72 9.83l6.38 29.34h39.3l6.35-29.37a99 99 0 0 0 23.73-9.83L323.61 239l13.23-13.23 1.33-1.32 13.23-13.24-16.28-25.26A99.3 99.3 0 0 0 345 162.2l29.37-6.35v-39.3Zm-96.33 76.66a50.67 50.67 0 1 1 50.67-50.66 50.66 50.66 0 0 1-50.72 50.66Z" class="cls-4"/></svg>