<svg xmlns="http://www.w3.org/2000/svg" xml:space="preserve" width="48" height="48"><g fill="#241F20"><path d="M9.875 5.672V3.859h20.008999999999997v8.125h8.054v14.437999999999999h3.904v-17L32.446.025H5.967v17.741h3.908zM45 40.218V36.15h-1.897a8.1 8.1 0 0 0-1.089-2.464l1.272-1.272-2.309-2.309-1.272 1.274a8.1 8.1 0 0 0-2.449-1.086v-1.902H33.16v1.902a8.1 8.1 0 0 0-2.501 1.116l-1.221-1.221-2.309 2.307 1.242 1.241a8.1 8.1 0 0 0-1.055 2.4h-1.901v4.093h1.901a8.2 8.2 0 0 0 1.085 2.452l-1.272 1.272 2.309 2.307 1.272-1.272a8.1 8.1 0 0 0 2.457 1.088v1.898h4.081v-1.898a8.1 8.1 0 0 0 2.405-1.056l1.323 1.322 2.309-2.307-1.303-1.305a8.1 8.1 0 0 0 1.119-2.514H45zm-9.458.84a2.875 2.875 0 1 1 0-5.75 2.875 2.875 0 0 1 0 5.75"/><path d="M23.637 31.885h2.215v-4.747h-2.215a9.5 9.5 0 0 0-1.27-2.875l1.485-1.484-2.693-2.694-1.484 1.486a9.5 9.5 0 0 0-2.858-1.267v-2.22h-4.781v2.22a9.5 9.5 0 0 0-2.917 1.302l-1.425-1.425L5 22.873l1.449 1.449a9.4 9.4 0 0 0-1.23 2.8H3v4.776h2.218a9.5 9.5 0 0 0 1.267 2.862L5 36.245l2.693 2.691 1.485-1.484a9.5 9.5 0 0 0 2.867 1.269v2.216h4.761v-2.216a9.5 9.5 0 0 0 2.808-1.231l1.544 1.543 2.693-2.691-1.521-1.522a9.5 9.5 0 0 0 1.307-2.935m-9.211 1.543a3.917 3.917 0 1 1 0-7.835 3.917 3.917 0 0 1 0 7.835"/></g></svg>