<svg xmlns="http://www.w3.org/2000/svg" xml:space="preserve" width="163.839" height="163.839" style="shape-rendering:geometricPrecision;text-rendering:geometricPrecision;image-rendering:optimizeQuality;fill-rule:evenodd;clip-rule:evenodd" viewBox="0 0 1707 1707"><defs><style>.str0{stroke:#000;stroke-width:46.6654;stroke-linecap:round;stroke-linejoin:round}.fil0,.fil1{fill:none}.fil1{fill-rule:nonzero}</style></defs><g id="Layer_x0020_1"><g id="_294982632"><path d="M370 601c189 0 342 153 342 342 0 206-139 172-139 514H167c0-342-139-308-139-514 0-189 153-342 342-342" class="fil0 str0"/><path d="M370 701c-134 0-242 108-242 242M237 1457h266v130H237zM288 1587h164.241v96.323H288zM1356 197c29 11 56 27 80 46l170-53 73 126-132 121c3 15 4 30 4 46s-1 31-4 46l132 121-73 126-170-53c-24 19-51 35-80 46l-39 174h-146l-39-174c-29-11-56-27-80-46l-170 53-73-126 131-121c-2-15-3-30-3-46s1-31 3-46L809 316l73-126 170 53c24-19 51-35 80-46l39-174h146z" class="fil0 str0"/><circle cx="1244" cy="483" r="189" class="fil0 str0"/><path d="M28 384h293v120l293-240L321 23v121H28zM1537 1563h-293v120l-293-240 293-241v121h293z" class="fil1 str0"/><path d="M370 1457V982M474 851 370 982M266 851l104 131" class="fil0 str0"/></g></g></svg>