<svg xmlns="http://www.w3.org/2000/svg" width="689" height="689"><path fill="#0F2352" d="M39.413 241.238c4.452-7.649 10.622-14.685 16.063-21.647 7.596-9.72 15.079-19.996 21.315-30.65 8.992-15.361 11.647-33.897 23.64-47.641 13.361-15.313 31.223-21.16 49.731-28.019 4.843-1.793 9.961-3.377 14.564-5.723 3.561-1.815 6.59-4.96 9.583-7.574q8.45-7.407 16.977-14.725c3.577-3.11 7.375-7.026 11.518-9.36 5.8-3.265 50.838-20.82 54.95-21.149 5.173-.414 18.376 2.79 24.137 3.839 5.516 1.004 15.708 4.017 20.835 3.407 4.232-.504 8.537-1.967 12.76-2.774l32.886-6.214c4.909-.956 10.379-2.531 15.368-2.715 6.19-.228 43.658 20.082 53.776 23.958 5.863 2.246 12.87 3.168 19.034 4.466l29.878 6.485c3.933.86 8.995 1.211 12.512 3.197 3.198 1.805 6.228 5.438 8.927 7.94 8.533 7.909 16.856 16.075 25.275 24.11 3.63 3.464 7.187 7.414 11.11 10.532 2.647 2.106 5.733 3.824 8.538 5.728q10.714 7.305 21.586 14.373c3.344 2.194 7.647 4.404 10.5 7.196 2.873 2.81 7.004 13.782 8.888 17.874l9.396 19.906c1.807 3.8 3.488 7.824 5.617 11.449 3.091 5.265 7.766 9.918 11.731 14.554l15.88 18.798c4.88 5.75 10.622 11.561 14.775 17.85 3.06 4.63 5.292 10.03 7.546 15.09 2.89 6.491 6.131 13.11 7.869 20.015 2.224 8.837 2.402 18.425 2.87 27.486q1.094 18.21 1.22 36.453c-5.264 8.49-9.141 18.052-13.454 27.064-5.1 10.656-10.571 21.174-15.493 31.91-2.665 5.813-14.331 33.02-16.935 35.631-2.049 2.053-4.976 3.478-7.307 5.234-8.518 6.416-17.47 12.476-26.35 18.38-6.686 4.444-14.024 8.749-19.88 14.234-11.184 10.472-20.916 23.36-31.698 34.455-3.471 3.572-6.907 7.436-11.031 10.264a5.7 5.7 0 0 1-1.317-.697c-.185-.795-.194-1.161.296-1.857 3.68-5.224 8.583-9.87 12.796-14.675 7.465-8.518 14.69-17.273 22.216-25.73 2.042-2.295 6.97-5.288 7.405-8.198l.18.149c.643-.184 31.133-22.17 35.015-25.048 2.512-1.862 4.984-4.364 7.672-5.894 2.222-1.051 7.495-3.315 8.712-5.426.311-.538.142-.628-.018-1.168.795-2.411 2.191-4.794 3.303-7.083q3.09-6.244 5.985-12.58 10.677-23.555 22.012-46.8c3.576-7.38 7.442-14.625 10.893-22.061.196-.06.404-.087.586-.179.813-.414.808-1.295.983-2.08q-.288-20.662-1.835-41.268c-.428-5.738-.6-11.712-1.708-17.356.177-.565.35-.963.224-1.563-.109-.515-.119-.343-.691-.668-.826-3.99-3.49-8.452-5.13-12.238-3.23-7.455-6.17-15.606-10.551-22.456-3.366-5.264-8.242-9.758-12.314-14.498-8.38-9.753-16.588-19.646-25.031-29.345l.187-.545c-.12-.231-.247-.502-.398-.721-.593-.86-1.447-1.502-2.454-1.672-3.068-4.446-7.296-14.526-9.753-19.824l-14.872-31.655c-5.998-3.322-11.478-7.502-17.088-11.426-6.707-4.69-13.526-9.265-20.317-13.836l.062-.128-.196-.536-.91-.423-.63.33-.208-.2-.113-.743-.99-.507c-9.637-6.972-17.376-16.728-26.478-24.424-2.539-2.892-14.86-15.066-17.413-16.426-3.26-1.738-14.87-3.502-19.328-4.442-13.178-2.783-26.48-5.444-39.558-8.647-.327-.14-.68-.064-1.031-.048l-.537-.502c-.586-.486-.566-.562-1.365-.7l-.035.61c-.326-.406-.673-.649-1.121-.911-5.163-3.023-46.359-22.255-49.529-22.554-4.38-.413-17.25 2.855-22.113 3.95-3.9.384-7.837 1.34-11.683 2.094l-19.106 3.73c-2.942.564-6.77 1.765-9.743 1.559-.788-.223-.823-.277-1.57.03-2.77.357-6.835-.898-9.641-1.407-4.2-.762-32.006-6.451-34.026-5.365l-.752-.237c-.536.349-.594.305-.886.918-2.623.098-41.462 15.807-46.457 18.126-1.562.726-3.728 1.637-4.907 2.92-.124.134-.224.29-.327.44l-.42-.47-.604.499c-5.933 5.699-12.425 10.96-18.663 16.325-3.73 3.21-7.498 6.996-11.518 9.8l-.304-.238c-1.66 1.193-3.217 2.538-4.81 3.821-.438.354-.284.23-.552.864-7.1 1.64-42.823 15.174-46.693 19.197-.444-.218-.16-.146-.88.06-5.513 4.163-11.251 8.324-15.576 13.778-6.5 8.197-11.066 21.871-15.265 31.645-1.923 4.479-4.342 9.092-5.864 13.712-.837.476-.98.613-1.32 1.567-.097.271-.148.586-.202.871-8.29 12.079-17.022 23.758-25.84 35.445-3.128 4.146-5.974 8.638-9.278 12.626-.332.837-.211.916.066 1.79l.056 2.56c-.279.784-.471 1.207-.296 2.05-.643 6.594-.71 13.317-1.006 19.943l-1.586 36.05c.497 1.844 1.652 2.352 3.193 3.364.765 3.884 7.231 9.64 9.409 13.496.253 2.817 23.001 31.211 25.907 34.881 2.187 2.761 5.868 6.363 7.302 9.407.243 3.385 1.803 7.24 2.735 10.555 1.243 4.427 2.302 8.873 3.667 13.269.874 2.812 2.76 7.004 2.643 9.884l-.128.482c2.168 1.364 4.747 1.99 6.942 3.298l-.198.493c4.282 4.708 32.422 28.565 37.005 31.059l.615-.124c1.857 1.97 4.73 10.033 7.412 9.798.297-.026.815-.185 1.114-.269q24.756 4.313 49.368 9.379 11.695 2.5 23.447 4.718c4.702.897 9.858 2.246 14.643 2.16 1.02.084 1.756.193 2.707-.286.161.05.324.095.484.15 6.436 2.241 16.994-5.495 23.444-7.315.165.017.33.039.494.051.81.059 1.47-.258 2.22-.506.574-.19.344-.136 1.019-.09-1.202.72-2.39 1.486-3.658 2.08-.467.218-.621.347-.92.755l-.034.363 6.733-3.394q5.86 20.08 11.461 40.234c2.108 7.57 3.932 15.362 6.435 22.806.448.77.433.79 1.26 1.102a23.5 23.5 0 0 1 1.204 3.08c5.676 1.417 38.637 7.048 41.418 8.574 1.21.16 2.428.362 3.648.397 1.305-.605 2.962-.17 4.351.008 3.062-2.907 7.037-4.1 10.273-6.594.755-.582.678-.687.752-1.59 4.675 3.645 9.887 7.178 14.133 11.297.085.043.166.098.255.13 1.67.607 4.77-.316 6.277-1.14 3.033.262 6.237.128 9.226.604-1.15.06-2.478-.021-3.481.588 4.996.574 10.036.611 15.054.912 7.24.433 14.506 1.062 21.752 1.3 5.987-.265 12.268.383 18.256.719 10.3.577 20.826 1.124 31.063 2.392a57 57 0 0 0 2.9 4.967c-.299.635-.614 1.09-1.068 1.625l-.06.48c-2.688 2.83-6.045 5.834-9.108 8.252-3.208 3.676-7.247 6.658-10.641 10.171.663 5.227 2.292 10.484 3.608 15.579q3.661 14.274 7.581 28.478c1.483 5.574 3.155 11.198 3.688 16.958q-1.024 1.067-2.185 1.984c-8.846 7.092-24.774 12.516-36.159 11.24-2.945-.33-5.75-1.194-8.147-2.984-9.722-7.26-28.672-39.348-35.925-51.155-1.807-2.94-3.223-6.62-5.437-9.221-5.288-6.217-50.866-40.8-57.535-43.871-4.461-2.055-20.053-4.321-25.656-4.854-5.996-7.49-13.323-14.327-20.2-20.99-3.127-3.031-6.572-5.949-9.299-9.353-1.743-2.178-3.076-4.798-4.498-7.194-3.342-5.631-9.172-15.942-13.506-20.353-9.168-2.43-18.883-3.698-28.226-5.434q-23.897-4.507-47.726-9.36c-4.676-.976-9.56-1.526-14.163-2.76-1.823-.488-3.477-1.156-4.996-2.292-3.201-2.394-6.165-5.29-9.244-7.86l-23.214-19.347c-4.697-3.926-17.469-13.338-20.626-17.448-2.493-3.246-3.205-8.377-4.2-12.273-1.707-6.673-4.603-19.487-7.845-25.16-2.346-4.107-5.824-7.805-8.669-11.607-9.062-12.112-18.767-23.73-27.615-36.012-2.857-3.967-5.948-7.907-8.41-12.134-.185-3.826.261-7.835.454-11.668.308-6.115.551-12.225.93-18.338.707-11.408 1.014-22.81 1.346-34.234"/><path fill="#104B7C" d="M325.295 529.448c4.588.288 9.135 1.423 13.75 1.444 9.43.98 23.81.7 32.236 4.305l2.281 20.596c.457 4.17.664 8.657 1.68 12.732-6.243-4.833-12.048-10.288-18.24-15.208-10.324-8.204-21.17-15.919-31.707-23.869"/><defs><linearGradient id="a" x1="441.284" x2="375.483" y1="747.822" y2="681.577" gradientUnits="userSpaceOnUse"><stop offset="0" stop-color="#076465"/><stop offset="1" stop-color="#259389"/></linearGradient></defs><path fill="url(#a)" d="m391.162 677.684 10.006-5.044q8.71 29.843 17.034 59.796c3.133 11.25 5.844 22.831 9.564 33.895-3.211-1.081-7.815-7.147-10.332-9.617-7.351-7.211-18.794-15.991-24.586-24.236-3.583-5.1-6.441-11.169-9.58-16.588q-3.894-6.829-8.52-13.185t-9.927-12.16c6.59-2.537 20.999-8.693 26.341-12.861" transform="scale(.67285)"/><defs><linearGradient id="b" x1="669.511" x2="569.809" y1="892.113" y2="899.896" gradientUnits="userSpaceOnUse"><stop offset="0" stop-color="#3F7BC5"/><stop offset="1" stop-color="#7FD9F9"/></linearGradient></defs><path fill="url(#b)" d="M563.551 854.204c8.401 4.275 17.61 11.228 25.689 16.478l44.856 28.994c13.171 8.565 26.18 17.493 40.279 24.494-2.818 1.902-5.828 3.568-8.754 5.302-11.82 6.561-27.749 12.179-41.34 8.461-3.987-1.091-6.912-3.484-9.709-6.418-8.473-8.891-15.102-20.242-21.821-30.488-10.044-15.318-20.283-30.828-29.2-46.823" transform="scale(.67285)"/><defs><linearGradient id="c" x1="655.694" x2="566.292" y1="847.357" y2="872.322" gradientUnits="userSpaceOnUse"><stop offset="0" stop-color="#48A4C9"/><stop offset="1" stop-color="#94EAF1"/></linearGradient></defs><path fill="url(#c)" d="M521.258 773.728c6.947 5.417 14.694 10.668 21.004 16.789.126.064.246.146.379.194 2.482.902 7.088-.471 9.329-1.696 4.507.391 9.27.191 13.712.899-1.71.088-3.683-.032-5.174.874 7.425.852 14.916.908 22.374 1.355 10.76.644 21.559 1.579 32.328 1.931 8.897-.393 18.233.57 27.132 1.069 15.308.858 30.951 1.671 46.166 3.556a84 84 0 0 0 4.309 7.382c-.443.944-.911 1.621-1.586 2.415l-.09.714c-3.995 4.206-8.983 8.669-13.536 12.264-4.768 5.463-10.771 9.895-15.815 15.116-2.067.129-5.11-.058-6.56 1.681-.658.788-.809 1.793-1.027 2.76 2.568 10.337 5.545 20.568 8.13 30.9 4.256 17.01 8.224 34.191 13.138 51.027-27.48-15.157-53.185-33.273-79.692-50.008-12.055-7.78-24.202-15.414-35.926-23.688l-1.07-4.81-1.093.496c-1.511-6.056-1.819-12.724-2.498-18.922l-3.39-30.61c-12.523-5.357-33.895-4.942-47.911-6.399l-.687-.355.033-.567.156.505.313-1.119c-3.224-.464-8.116-.272-10.723-2.193 1.798.238 3.609.538 5.423.59 1.939-.898 4.402-.251 6.466.013 4.55-4.321 10.458-6.094 15.267-9.8 1.123-.865 1.009-1.021 1.119-2.363" transform="scale(.67285)"/><path fill="#030438" d="M350.73 520.604c4.674 3.645 9.886 7.178 14.132 11.297.085.043.166.098.255.13 1.67.607 4.77-.316 6.277-1.14 3.033.262 6.237.128 9.226.604-1.15.06-2.478-.021-3.481.588 4.996.574 10.036.611 15.054.912 7.24.433 14.506 1.062 21.752 1.3q-.139.031-.278.061c-2.493.505-9.56-.865-10.925.47.136.755.3 1.471.518 2.207-.263.78-.545 1.476-.905 2.217-.332.686-.475 1.112-.442 1.895 1.543 2.165 6.913 2.032 8.54 4.133l-.085.167c11.144 6.014 23.406 9.628 34.22 16.421 2.554-2.793 7.746-7.552 10.864-9.504l.476.368c-3.208 3.676-7.247 6.658-10.641 10.171-1.391.087-3.439-.039-4.414 1.131-.443.53-.545 1.207-.691 1.857-.179-.658-.333-1.407-.615-2.026-.793-1.744-42.293-18.661-48.034-20.875-6.372-2.487-12.74-5.395-19.21-7.59.468 10.902 2.33 21.962 3.655 32.793l-.735.334c-1.017-4.075-1.224-8.561-1.681-12.732l-2.28-20.596c-8.427-3.604-22.807-3.325-32.238-4.305l-.462-.24.022-.38.105.34.21-.754c-2.169-.312-5.46-.183-7.214-1.475 1.21.16 2.428.362 3.648.397 1.305-.605 2.962-.17 4.351.008 3.062-2.907 7.037-4.1 10.273-6.594.755-.582.678-.687.752-1.59"/><path fill="#145A6F" d="M377.139 532.083c4.996.574 10.036.611 15.054.912 7.24.433 14.506 1.062 21.752 1.3q-.139.031-.278.061c-2.493.505-9.56-.865-10.925.47.136.755.3 1.471.518 2.207-.263.78-.545 1.476-.905 2.217-.332.686-.475 1.112-.442 1.895 1.543 2.165 6.913 2.032 8.54 4.133l-.085.167c-10.116-3.865-19.96-8.593-30.368-11.643-1.31-.383-2.627-1.086-3.946-1.331q-.211-.037-.422-.07z"/><path fill="#0F2352" d="M350.73 520.604c4.674 3.645 9.886 7.178 14.132 11.297-4.319-.201-8.664-.75-12.971-1.147-5.546-.51-11.07-.844-16.538-1.974 1.305-.605 2.962-.17 4.351.008 3.062-2.907 7.037-4.1 10.273-6.594.755-.582.678-.687.752-1.59"/><path fill="#104B7C" d="M413.945 534.294c5.987-.264 12.268.384 18.256.72 10.3.577 20.826 1.124 31.063 2.392a57 57 0 0 0 2.9 4.967c-.299.635-.614 1.09-1.068 1.625l-.06.48c-2.688 2.83-6.045 5.834-9.108 8.252l-.476-.368c-3.118 1.952-8.31 6.711-10.864 9.504-10.814-6.793-23.076-10.407-34.22-16.42l.085-.168c-1.627-2.101-6.997-1.968-8.54-4.133-.033-.783.11-1.209.442-1.895.36-.741.642-1.437.905-2.217a21 21 0 0 1-.518-2.207c1.364-1.335 8.432.035 10.925-.47q.139-.029.278-.062"/><path d="M342.015 60.226c4.864-1.095 17.733-4.363 22.113-3.95 3.17.299 44.366 19.53 49.529 22.554.448.262.795.505 1.121.91l.035-.609c.799.138.779.214 1.365.7l.537.502c.35-.016.704-.093 1.031.048 13.078 3.203 26.38 5.864 39.558 8.647 4.458.94 16.068 2.704 19.328 4.442 2.552 1.36 14.874 13.534 17.413 16.426 9.102 7.696 16.841 17.452 26.478 24.424l.99.507.113.743.207.2.63-.33.91.423.197.536-.062.128c6.79 4.571 13.61 9.145 20.317 13.836 5.61 3.924 11.09 8.104 17.088 11.426l14.872 31.655c2.457 5.298 6.685 15.378 9.753 19.824 1.007.17 1.861.812 2.454 1.672.15.22.278.49.398.72l-.187.546c8.443 9.699 16.652 19.592 25.03 29.345 4.073 4.74 8.949 9.234 12.315 14.498 4.38 6.85 7.321 15.001 10.55 22.456 1.641 3.786 4.305 8.248 5.13 12.238.573.325.583.153.692.668.125.6-.047.998-.224 1.563 1.107 5.644 1.28 11.618 1.708 17.356q1.547 20.606 1.835 41.269c-.175.784-.17 1.665-.983 2.079-.182.092-.39.12-.586.179-3.45 7.436-7.317 14.682-10.893 22.06q-11.335 23.246-22.012 46.8-2.894 6.337-5.985 12.581c-1.112 2.289-2.508 4.672-3.303 7.083.16.54.33.63.018 1.168-1.217 2.11-6.49 4.375-8.712 5.426-2.688 1.53-5.16 4.032-7.672 5.894-3.882 2.878-34.372 24.864-35.015 25.048l-.18-.149c-.434 2.91-5.363 5.903-7.405 8.198-7.526 8.457-14.75 17.212-22.216 25.73-4.213 4.806-9.117 9.45-12.796 14.675-.49.696-.481 1.062-.296 1.857.465.315.781.492 1.317.697-1.84 1.333-3.949 3.216-6.064 4.052-7.738 3.058-32.132 2.25-37.42 5.502l.06-.48c.454-.535.77-.99 1.067-1.626a57 57 0 0 1-2.899-4.967c-10.237-1.268-20.763-1.815-31.063-2.392-5.988-.336-12.27-.984-18.256-.72-7.246-.237-14.512-.866-21.752-1.299-5.018-.3-10.058-.338-15.054-.912 1.003-.61 2.33-.529 3.481-.588-2.989-.476-6.193-.342-9.226-.605-1.508.825-4.607 1.748-6.277 1.141-.09-.032-.17-.087-.255-.13-4.246-4.119-9.458-7.652-14.133-11.297-.074.903.003 1.008-.752 1.59-3.236 2.494-7.211 3.687-10.273 6.594-1.389-.177-3.046-.613-4.35-.008-1.221-.035-2.44-.237-3.65-.397-2.78-1.526-35.741-7.157-41.417-8.575a23.5 23.5 0 0 0-1.204-3.079c-.827-.312-.812-.333-1.26-1.102-2.503-7.444-4.327-15.236-6.435-22.806q-5.6-20.154-11.461-40.234l-6.733 3.394.034-.363c.299-.408.453-.537.92-.755 1.269-.594 2.456-1.36 3.658-2.08-.675-.046-.445-.1-1.019.09-.75.248-1.41.565-2.22.506-.164-.012-.33-.034-.494-.051-6.45 1.82-17.008 9.556-23.444 7.316-.16-.056-.323-.101-.484-.151-.951.48-1.687.37-2.707.286-4.785.086-9.94-1.263-14.643-2.16q-11.752-2.218-23.447-4.718-24.612-5.066-49.368-9.379c-.3.084-.817.243-1.114.269-2.682.235-5.555-7.827-7.412-9.798l-.615.124c-4.583-2.494-32.723-26.351-37.005-31.059l.198-.493c-2.195-1.308-4.774-1.934-6.942-3.298l.128-.482c.116-2.88-1.769-7.072-2.643-9.884-1.365-4.396-2.424-8.842-3.667-13.269-.932-3.316-2.492-7.17-2.735-10.555-1.434-3.044-5.115-6.646-7.302-9.407-2.906-3.67-25.654-32.064-25.907-34.88-2.178-3.857-8.644-9.613-9.409-13.497-1.54-1.012-2.696-1.52-3.193-3.363l1.586-36.05c.296-6.627.363-13.35 1.006-19.945-.175-.842.017-1.265.296-2.05l-.056-2.559c-.277-.874-.398-.953-.066-1.79 3.304-3.988 6.15-8.48 9.277-12.626 8.819-11.687 17.551-23.366 25.84-35.445.055-.285.106-.6.203-.87.34-.955.483-1.092 1.32-1.568 1.522-4.62 3.94-9.233 5.864-13.712 4.199-9.774 8.765-23.448 15.265-31.645 4.325-5.454 10.063-9.615 15.577-13.778.72-.206.435-.278.88-.06 3.87-4.023 39.592-17.558 46.692-19.197.268-.634.114-.51.553-.864 1.592-1.283 3.148-2.628 4.81-3.82l.303.237c4.02-2.804 7.787-6.59 11.518-9.8 6.238-5.365 12.73-10.626 18.663-16.325l.603-.499.42.47c.104-.15.204-.306.328-.44 1.18-1.283 3.345-2.194 4.907-2.92 4.995-2.319 43.834-18.028 46.457-18.126.292-.613.35-.57.886-.918l.752.237c2.02-1.086 29.826 4.603 34.026 5.365 2.806.51 6.87 1.764 9.64 1.407.748-.307.783-.253 1.57-.03 2.975.206 6.802-.995 9.744-1.56l19.106-3.729c3.846-.754 7.783-1.71 11.683-2.094"/><path fill="#2BC0A5" d="M90.904 335.687c2.834 3.348 6.407 5.843 9.468 8.95l-.201.504-1.243-.722c-.451.496-.38.247-.36.955.067 2.18 2.52 3.843 1.854 6.089-3.339-5.093-6.429-10.52-9.518-15.776"/><path fill="#880E75" d="M465.008 537.342c2.912.25 24.895 1.615 25.066 1.68l-.584.489c-.715-.084-1.158.098-1.853.282-3.582.456-17.573 2.909-20.164 1.81-.733-.312-2.12-3.406-2.465-4.261"/><path fill="#CC118B" d="M452.202 328.064c4.801 3.85 9.255 8.252 13.843 12.367 8.814 7.905 18.032 15.961 26.053 24.677-8.56-2.946-16.978-7.099-25.297-10.693-5.421-2.342-11.662-4.413-16.738-7.364 4.141.264 12.809 6.527 15.845 5.235 1.03-.438 1.533-1.41 1.84-2.421.408-1.346.852-4.875.438-6.205-.927-2.97-13.846-10.94-15.766-15.081-.078-.17-.146-.344-.218-.515"/><path fill="#880E75" d="M455.958 521.37c1.612.869 5.555 12.287 6.602 14.811q-9.356-.888-18.699-1.891c-3.25-.059-6.488-.107-9.728-.393 7.194-4.368 14.35-8.647 21.825-12.528"/><path fill="#197F74" d="M104.032 403.565c8.634 3.479 17.036 6.672 26.174 8.587 4.031 7.47 7.632 15.165 11.248 22.841l-.615.124c-4.583-2.494-32.723-26.351-37.005-31.059z"/><path fill="#880E75" d="M458.609 521.948c4.507.944 41.126 13.765 43.133 15.965-6.263 1.695-29.51-1.14-37.615-1.614-2.003-4.717-3.739-9.546-5.518-14.35"/><defs><linearGradient id="d" x1="762.539" x2="723.392" y1="352.652" y2="332.582" gradientUnits="userSpaceOnUse"><stop offset="0" stop-color="#E775AE"/><stop offset="1" stop-color="#FC89E6"/></linearGradient></defs><path fill="url(#d)" d="M713.048 346.628c13.004-2.564 26.149-4.515 39.195-6.887 15.126-2.749 30.322-5.941 45.577-7.886-3.748 3.196-26.796 3.627-28.156 5.714-.154.236-.108.553-.166.829-1.051 5.042-4.659 8.128-6.957 12.592-1.827 3.55-8.53 8.926-8.536 12.452 3.634 3.874 25.512 10.203 25.944 12.806-6.064-1.303-17.938-7.427-24.184-10.199-14.188-6.298-29.027-12.126-42.717-19.421" transform="scale(.67285)"/><path fill="#6B3DAF" d="M537.542 322.075c1.06 4.15-3.567 10.678-5.69 14.255-3.278 5.519-21.364 26.344-26.455 29.604-.112.847-.141 1.46-.002 2.316l-.12.276c-3.237-.38-6.528-1.337-9.713-2.048 6.884-7.83 14.378-15.231 21.604-22.748 6.87-7.146 13.545-14.474 20.376-21.655"/><path fill="#197F74" d="M88.173 366.077c4.592 5.924 10.088 11.142 15.213 16.6 5.773 6.148 11.332 12.504 17.13 18.625 3.096 3.267 6.488 6.327 9.356 9.792q-10.125-2.655-19.896-6.408c-3.515-1.323-9.29-4.4-12.758-4.9.116-2.881-1.769-7.073-2.643-9.885-1.365-4.396-2.424-8.842-3.667-13.269-.932-3.316-2.492-7.17-2.735-10.555"/><defs><linearGradient id="e" x1="855.151" x2="823.783" y1="700.264" y2="673.242" gradientUnits="userSpaceOnUse"><stop offset="0" stop-color="#085754"/><stop offset="1" stop-color="#167375"/></linearGradient></defs><path fill="url(#e)" d="M810.28 687c18.005-3.61 36.069-7.818 53.985-11.898 5.527-1.259 12.458-4.344 18.004-4.061l.188.64-1.456 1.535c-3.996 2.275-7.67 5.993-11.402 8.76-5.77 4.278-51.084 36.954-52.04 37.226l-.268-.22q-3.173-16.064-7.011-31.982" transform="scale(.67285)"/><path fill="#68A0EB" d="M348.494 364.265c8.839-2.361 17.836-4.173 26.691-6.522 14.896-3.95 30.636-8.647 45.565-12.019l.054.368c-2.912 1.019-5.906 2-8.955 2.479-.584.091-.929.287-1.39.645l-.514 1.073c-.865.022-2.167-.085-2.983.15-1.36.393-15.653 12.243-17.35 14.036-3.684 3.89-6.028 5.452-6.008 11.268.003.846.215 1.865.63 2.596.805.3 2.618.732 3.003 1.432l-.087.176c-5.04-1.568-10.027-3.908-14.922-5.898q-11.922-4.759-23.734-9.784"/><path fill="#145A6F" d="M543.911 462.622c1.242 1.082 4.746 19.727 5.324 22.28-5.482.635-11.32.333-16.857.425q-21.091.52-42.178-.15l-6.339-.02c9.244-3.86 18.925-6.69 28.302-10.213 10.621-3.99 21.028-8.6 31.748-12.322"/><path fill="#80EEE6" d="M91.529 335.081c17 .128 34.068-.419 51.06 0l.298.07c1.105.247 2.14.319 3.263.42.657.058.414.013 1.046.357-2.951 2.733-8.366 5.792-10.68 8.75-1.015 1.295-.905 3.476-1.888 4.82-1.268 1.733-3.715 2.511-4.8 4.45-.025.983-.04 1.89-.296 2.85-.81.636-2.14 1.132-2.57 2.08.63 2.16 1.278 4.24 2.268 6.27l-.318.135c-1.478-1.065-2.878-2.517-4.693-2.854-10.298-7.292-23.542-18.628-32.69-27.348"/><path fill="#6B3DAF" d="M382.73 379.71c8.936 3.188 17.735 6.917 26.52 10.498 11.89 4.845 23.761 9.658 35.545 14.757 7.78 3.366 15.844 6.162 23.46 9.89-8.012-.565-15.674-2.42-23.474-4.246-9.864-2.307-19.685-4.837-29.587-6.971l-32.209-6.85c-6.289-1.292-13.281-2.206-19.354-4.231 2.808-.218 5.72 1.337 8.325 1.05.74-.08 5.721-2.691 6.847-3.227 1.422-.678 2.06-.8 3.672-.608q.224.029.446.06c.986-.812.774-1.755 1.378-2.851l1.572.492c.553-1.148-.124-2.244.418-3.593.902-.447 1.13-.284 2.093-.1l.612-.688c-1.593-1.439-4.382-1.447-5.894-2.982-.127-.129-.247-.267-.37-.4"/><path fill="#CC118B" d="M546.76 264.585c4.303 1.294 8.667 3.847 12.736 5.795 5.96 2.852 12.084 5.553 17.93 8.625q-31.418 32.065-62.2 64.74c-2.647 2.764-18.716 20.458-19.8 20.874l-.15-.433c5.421-5.287 10.362-11.336 15.548-16.88 4.237-4.531 8.58-8.937 12.758-13.53.774-.85 2.248-2.04 2.777-3.005.172-.315.145-.703.218-1.054-.17-.39-.433-.494-.77-.744 1.453-9.358 9.139-17.506 14.42-25.01 1.453-2.064 2.024-4.56 3.348-6.7 5.203-8.413 13.219-17.03 12.523-27.615-1.945-1.662-6.584-3.222-9.12-4.414z"/><path fill="#2BC0A5" d="M131.75 412.247c14.406 2.7 29.025 4.633 43.572 6.4 5.3.644 10.634 1.583 15.944 2.038-4.768 2.979-9.854 5.54-14.807 8.202-7.475 4.14-21.433 12.646-28.841 15.076-2.059-3.203-3.607-6.947-5.315-10.366q-5.335-10.646-10.553-21.35"/><path fill="#A37CD3" d="m396.631 279.405.093.115c-.124 2.184-41.697 69.783-46.81 77.828l-.235-.095c1.008-7.266 3.104-14.632 4.666-21.815l6.908-32.627c1.293-6.007 2.818-11.962 3.987-17.994 10.49-1.64 20.91-3.723 31.391-5.412"/><path fill="#C92AA3" d="M400.202 280.542c8.348 6.435 16.41 15.016 24.307 22.161q9.554 8.528 18.962 17.215c2.896 2.651 6.15 5.2 8.73 8.146.073.171.14.346.219.515 1.92 4.142 14.84 12.11 15.766 15.08.414 1.331-.03 4.86-.438 6.206-.307 1.011-.81 1.983-1.84 2.42-3.036 1.293-11.704-4.97-15.845-5.234-2.413-.193-12.287-5.104-15.569-6.284-2.065-2.945-3.69-6.387-5.523-9.496-4.831-8.191-9.497-16.398-14.142-24.691-4.857-8.672-10.49-16.983-14.627-26.038"/><path fill="#E9ABD9" d="M201.893 83.063q6.787 31.156 15.5 61.83l-35.831-24.335c-4.272-2.864-8.395-6.021-12.747-8.754.908-.787 2.204-1.657 2.897-2.616 4.02-2.804 7.787-6.59 11.518-9.8 6.238-5.365 12.73-10.626 18.663-16.325"/><path fill="#2BC0A5" d="M44.954 248.935c2.203 4.125 4.078 8.454 6.138 12.656q6.423 12.978 12.982 25.888c7.468 14.604 15.748 29 22.404 43.985q-14.02-8.287-27.886-16.828c-4.814-2.969-11.19-7.495-16.23-9.706l1.586-36.05c.296-6.627.363-13.35 1.006-19.945"/><path fill="#C92AA3" d="m544.707 486.298.6.172c-1.147 1.737-15.61 6.531-18.08 7.454-7.089 2.648-14.331 4.67-21.505 7.047-17.077 5.658-34.648 11.768-50.896 19.508-7.674 3.656-14.82 8.782-22.253 12.953l-.281-.107-.123-.48c8.935-10.655 20.58-20.286 30.936-29.599 6.28-5.646 12.288-11.67 18.994-16.816 20.852-.052 41.76 1.398 62.608-.132"/><defs><linearGradient id="f" x1="311.046" x2="264.954" y1="708.158" y2="635.342" gradientUnits="userSpaceOnUse"><stop offset="0" stop-color="#0D6861"/><stop offset="1" stop-color="#15816F"/></linearGradient></defs><path fill="url(#f)" d="M287.259 625.943c4.945 5.861 11.566 10.9 17.235 16.101 8.172 7.498 16.132 15.634 24.841 22.494 4.249 3.829 8.707 7.416 12.953 11.244q5.343 4.464 10.595 9.033c-7.111.128-14.774-1.877-21.762-3.211q-17.466-3.296-34.848-7.012-36.579-7.529-73.371-13.938c11.675-5.372 22.885-11.957 34.141-18.149 10.051-5.528 20.333-10.749 30.216-16.562" transform="scale(.67285)"/><path fill="#2BC0A5" d="M45.555 308.293c8.302 4.193 16.23 9.908 24.15 14.81 4.424 2.736 15.591 8.57 18.797 11.923 3.857 4.034 6.715 10.162 9.502 14.98 7.203 12.453 14.347 25.112 20.827 37.958 3.27 6.483 6.162 13.156 9.382 19.663-15.068-16.451-30.797-32.253-45.046-49.435-6.853-8.263-13.327-16.894-19.834-25.431-2.748-3.607-5.373-7.584-8.37-10.972-2.177-3.856-8.643-9.612-9.408-13.496"/><path fill="#197F74" d="M194.623 421.092c7.807 2.134 15.505 4.553 23.274 6.8 5.902 1.708 11.856 3.237 17.729 5.042 9.698 2.98 19.3 6.248 29.032 9.126 7.307 2.16 68.36 18.918 70.455 20.628l-.486.06.124.343-.21-.358q-31.85-5.828-63.52-12.575c-2.245 1.196-4.614 2.16-6.948 3.17-6.45 1.82-17.008 9.556-23.444 7.316-.16-.056-.323-.101-.484-.151-3.446-1.817-6.368-4.67-9.208-7.29q-3.888-3.384-7.934-6.579-14.506-12.415-28.38-25.532"/><path fill="#880E75" d="m543.514 488.777.55.075c-.453 1.566-8.695 9.897-10.163 11.542-4.465 5.001-8.615 10.278-13.11 15.256-6.113 6.77-12.97 13.444-18.048 21.048-10.17-3.978-20.253-8.12-30.498-11.908-4.609-1.702-9.449-2.723-14.006-4.533 3.843-1.162 7.568-3.075 11.289-4.6q8.91-3.603 17.955-6.855c18.672-6.714 37.76-12.231 56.031-20.025"/><path fill="#5080DC" d="M338.718 388.726q35.577 7.145 70.978 15.118 14.785 3.239 29.488 6.831c4.853 1.165 9.82 2.192 14.604 3.602-5.737.512-11.898-.16-17.687-.258q-16.96-.265-33.92-.23l-54.765.053c-8.404.004-17.274.735-25.627-.019 3.338-1.574 7.45.877 10.548-1.271 5.366-3.723 6.173-13.128 7.244-19.061.93-.643 1.29-.716 1.655-1.815-.38-1.094-1.54-1.402-2.171-2.389-.12-.185-.232-.374-.347-.56"/><path fill="#A37CD3" d="M346.537 364.907c12.125 4.708 24.29 9.561 36.193 14.803.123.133.243.271.37.4 1.512 1.535 4.301 1.543 5.894 2.982l-.612.687c-.964-.183-1.191-.346-2.093.101-.542 1.35.135 2.445-.418 3.593l-1.572-.492c-.604 1.096-.392 2.04-1.378 2.851q-.222-.031-.446-.06c-1.613-.192-2.25-.07-3.672.608-1.126.536-6.108 3.146-6.847 3.228-2.605.286-5.517-1.27-8.325-1.051-4.208-.389-8.847-1.874-13.015-2.738l-27.899-5.556q-14.206-2.808-28.47-5.313c-6.718-1.195-13.842-2.057-20.341-4.175 11.982-1.506 23.913-3.305 35.882-4.894 12.253-1.627 24.535-3.058 36.749-4.974"/><defs><linearGradient id="g" x1="723.335" x2="636.771" y1="583.766" y2="527.9" gradientUnits="userSpaceOnUse"><stop offset="0" stop-color="#5B269A"/><stop offset="1" stop-color="#8255C9"/></linearGradient></defs><path fill="url(#g)" d="M645.923 508.73c7.692 1.989 15.474 6.299 22.844 9.354 21.869 9.064 43.367 18.856 65.383 27.588-2.981 5.761-5.183 12.175-7.672 18.178l-13.465 31.999q-4.577 10.749-9.312 21.429c-4.566-12.736-12.906-24.794-19.354-36.681q-19.563-35.746-38.424-71.867" transform="scale(.67285)"/><path fill="#A2D4ED" d="M119.353 132.832c3.87-4.023 39.593-17.558 46.693-19.197-2.819 7.126-4.845 14.648-7.116 21.97q-5.695 17.87-10.967 35.869-2.131 7.285-4.413 14.524c-.99 3.16-2.256 6.429-2.818 9.692l-13.585-39.319c-2.616-7.79-4.87-15.872-7.794-23.539"/><path fill="#80EEE6" d="M45.194 244.326c9.36 6.07 19.407 11.128 29.158 16.54 8.362 4.641 16.525 9.667 25.063 13.983q-4.103 19.549-7.848 39.169c-1.112 5.809-2.42 11.594-3.298 17.443-9.707-20.172-20.563-39.914-30.775-59.85q-3.916-7.564-7.56-15.261c-1.468-3.078-2.793-6.64-4.684-9.464zM80.246 194.465c2.437 14.472 6.174 28.603 9.806 42.808q4.497 17.818 8.795 35.685c-9.434-4.868-18.619-10.271-27.904-15.42-8.636-4.79-17.692-9.373-25.815-15.002 3.304-3.988 6.15-8.48 9.277-12.626 8.819-11.687 17.551-23.366 25.84-35.445"/><defs><linearGradient id="h" x1="368.704" x2="314.041" y1="171.783" y2="112.38" gradientUnits="userSpaceOnUse"><stop offset="0" stop-color="#B86BC1"/><stop offset="1" stop-color="#DA96D1"/></linearGradient></defs><path fill="url(#h)" d="M301.577 123.407c.153-.225.302-.456.487-.656 1.752-1.906 4.971-3.26 7.293-4.338 7.423-3.447 65.146-26.794 69.044-26.939-9.858 23.946-20.458 47.615-30.662 71.418-7.502 17.499-14.505 35.452-22.814 52.582-5.894-19.649-10.714-39.52-15.424-59.482-2.546-10.787-4.575-22.028-7.924-32.585" transform="scale(.67285)"/><defs><linearGradient id="i" x1="893.099" x2="826.856" y1="660.755" y2="624.474" gradientUnits="userSpaceOnUse"><stop offset="0" stop-color="#901B68"/><stop offset="1" stop-color="#AF55A3"/></linearGradient></defs><path fill="url(#i)" d="M855.127 571.361c3.451 4.625 11.208 28.063 13.986 35.535q7.036 18.638 14.488 37.113c2.922 7.446 5.519 15.059 8.768 22.368-5.154 1.647-10.661 2.674-15.929 3.942q-16.945 4.19-34.052 7.658l-31.455 6.918c5.507-17.94 13.481-35.8 20.313-53.335 7.82-20.071 14.867-40.626 23.881-60.199" transform="scale(.67285)"/><defs><linearGradient id="j" x1="613.841" x2="528.472" y1="813.787" y2="717.161" gradientUnits="userSpaceOnUse"><stop offset="0" stop-color="#593081"/><stop offset="1" stop-color="#996DC8"/></linearGradient></defs><path fill="url(#j)" d="M543.462 700.268c17.152 15.436 33.452 31.934 50.318 47.7l26.918 25.043c5.299 4.835 10.891 9.363 16.008 14.394 1.569 1.542 2.929 2.984 3.825 5.02l-.264.625c-5.489.873-12.026-.123-17.599-.333-18.959-.717-38.044-2.611-56.986-2.803-4.442-.708-9.205-.508-13.712-.899q-3.997-.68-8.027-1.13z" transform="scale(.67285)"/><path fill="#197F74" d="M439 444.8c3.254.78 36.459 35.219 41.695 40.11-8.252-.911-16.507-2.424-24.72-3.654q-18.754-2.765-37.538-5.314l-31.829-3.84c-6.198-.787-12.55-1.423-18.666-2.69 22.96-9.79 47.278-17.073 71.058-24.611"/><path fill="#6B3DAF" d="M495.085 367.45c7.319 2.395 16.046 3.63 23.653 5.239 10.086 2.134 20.217 3.961 30.335 5.93 7.817 1.522 15.564 3.262 23.43 4.538-3.548 1.38-7.26 2.426-10.853 3.71-9.295 3.321-18.505 6.69-27.946 9.596-13.072 4.723-26.417 8.685-39.713 12.717-6.214 1.885-12.447 4.244-18.761 5.711z"/><defs><linearGradient id="k" x1="956.865" x2="897.085" y1="528.718" y2="497.561" gradientUnits="userSpaceOnUse"><stop offset="0" stop-color="#881F83"/><stop offset="1" stop-color="#A0449F"/></linearGradient></defs><path fill="url(#k)" d="M953.695 441.366c1.646 8.388 1.903 17.267 2.539 25.794q2.299 30.626 2.727 61.335c-8.792 4.289-18.859 7.321-28.017 10.807l-71.001 26.348 49.037-64.809c15.018-19.75 30.319-39.255 44.715-59.475" transform="scale(.67285)"/><defs><linearGradient id="l" x1="287.311" x2="132.611" y1="613.678" y2="542.824" gradientUnits="userSpaceOnUse"><stop offset="0" stop-color="#148A78"/><stop offset="1" stop-color="#40C1A7"/></linearGradient></defs><path fill="url(#l)" d="M149.248 522.348c.99-3.338-2.655-5.809-2.754-9.05-.032-1.052-.137-.681.534-1.418l1.847 1.072.299-.75c7.596 6.238 15.02 12.674 22.71 18.8 11.688 9.312 23.663 18.261 35.354 27.571 9.56 7.613 18.891 15.507 28.456 23.111 17.12 13.61 35.426 26.83 51.071 42.123-10.877-1.984-21.922-2.926-32.884-4.288q-18.359-2.433-36.674-5.176c-7.138-1.047-14.554-1.835-21.576-3.465-8.699-15.498-15.602-31.984-23.994-47.689q-7.193-13.555-14.645-26.97c-2.423-4.309-6.06-9.298-7.744-13.871" transform="scale(.67285)"/><path fill="#80EEE6" d="M118.474 132.892c4.505 16.926 11.02 33.395 16.605 49.997 1.617 4.806 3.403 9.63 4.75 14.518-19.33-1.507-38.83-2.93-58.061-5.38 1.522-4.62 3.94-9.233 5.864-13.712 4.199-9.774 8.765-23.448 15.265-31.645 4.325-5.454 10.063-9.615 15.577-13.778"/><path fill="#197F74" d="M474.334 417.375c4.611 2.714 9.026 5.805 13.57 8.638 18.599 11.595 36.914 23.657 55.448 35.365-5.62 1.887-11.113 4.07-16.621 6.258q-13.314 5.123-26.738 9.949c-5.818 2.12-11.988 4.042-17.467 6.936-2.135-13.533-3.474-27.192-4.989-40.804-.977-8.789-2.162-17.56-3.203-26.342"/><defs><linearGradient id="m" x1="510.091" x2="386.945" y1="789.978" y2="700.29" gradientUnits="userSpaceOnUse"><stop offset="0" stop-color="#1E3679"/><stop offset="1" stop-color="#3581D1"/></linearGradient></defs><path fill="url(#m)" d="M403.048 672.879c6.343 4.011 11.932 9.415 17.561 14.363l29.514 26.27c23.386 20.464 47.504 40.041 71.135 60.216-.11 1.342.004 1.498-1.119 2.363-4.809 3.706-10.717 5.479-15.267 9.8-2.064-.264-4.527-.911-6.466-.013-1.814-.052-3.625-.352-5.423-.59-4.133-2.268-53.12-10.636-61.556-12.743-.493-1.602-1.081-3.058-1.789-4.576l-17.651-63.683c-2.91-10.465-5.583-21.083-8.939-31.407" transform="scale(.67285)"/><path fill="#80EEE6" d="M81.044 193.027c7.865 1.179 15.929 1.708 23.85 2.478 11.49 1.116 23.013 2.353 34.538 3.025l-25.622 49.626-13.705 25.008c-3.312-10.954-5.764-23.605-8.642-34.871-2.686-10.514-5.529-20.93-7.906-31.524-.997-4.451-2.308-9.177-2.513-13.742"/><path fill="#CC118B" d="M588.203 216.206c8.443 9.699 16.652 19.592 25.03 29.345 4.073 4.74 8.949 9.234 12.315 14.498 4.38 6.85 7.321 15.001 10.55 22.456 1.641 3.786 4.305 8.248 5.13 12.238-14.582-2.797-28.922-7.421-43.198-11.469-6.06-1.718-12.845-2.847-18.646-5.258 1.055-9.89 2.82-19.694 4.066-29.562 1.096-8.69 2.165-24.563 4.753-32.248"/><defs><linearGradient id="n" x1="929.451" x2="857.125" y1="599.324" y2="571.801" gradientUnits="userSpaceOnUse"><stop offset="0" stop-color="#E27856"/><stop offset="1" stop-color="#F5A284"/></linearGradient></defs><path fill="url(#n)" d="M956.63 531.851c-5.129 11.052-10.875 21.82-16.19 32.786q-16.846 34.548-32.714 69.555-4.302 9.418-8.895 18.698c-1.653 3.401-3.728 6.943-4.909 10.527-3.131-3.895-6.765-15.528-8.925-20.962-9.624-24.211-18.226-49.018-28.478-72.949 5.767-3.584 13.037-5.638 19.42-7.991l31.053-11.379 31.498-11.814c5.987-2.244 11.988-4.733 18.14-6.471" transform="scale(.67285)"/><path fill="#E9ABD9" d="M219.586 282.818c2.136 2.055 18.934 35.616 21.758 40.948 8.814 16.646 18.276 33.022 26.678 49.875q-9.166-4.606-18.275-9.325c-19.147-10.415-38.943-19.973-57.608-31.225 2.963-6.85 7.04-13.494 10.619-20.039 5.522-10.099 10.959-20.337 16.828-30.234"/><defs><linearGradient id="o" x1="267.325" x2="223.623" y1="253.9" y2="185.543" gradientUnits="userSpaceOnUse"><stop offset="0" stop-color="#8B91D8"/><stop offset="1" stop-color="#A3C8ED"/></linearGradient></defs><path fill="url(#o)" d="M249.498 167.199c24.445 17.065 49.361 33.484 73.892 50.44-21.945 15.659-45.099 30.002-67.64 44.803-15.312 9.452-30.222 19.702-45.451 29.318 3.827-10.851 6.829-22.065 10.14-33.088q8.55-28.843 17.598-57.533c3.552-11.296 6.659-23.099 11.461-33.94" transform="scale(.67285)"/><defs><linearGradient id="p" x1="459.538" x2="372.748" y1="735.676" y2="582.446" gradientUnits="userSpaceOnUse"><stop offset="0" stop-color="#188C80"/><stop offset="1" stop-color="#30D3B4"/></linearGradient></defs><path fill="url(#p)" d="m420.993 618.205 9.533-.508c15.418 9.842 30.284 21.197 45.031 32.018q31.865 23.511 64.062 46.566l-101.823-28.458c-49.191-13.884-97.66-30.437-147.016-43.651 6.121-.022 12.271-.706 18.379-1.096q14.91-.951 29.836-1.619c27.337-1.209 54.672-1.593 81.998-3.252" transform="scale(.67285)"/><defs><linearGradient id="q" x1="273.148" x2="200.197" y1="503.189" y2="428.946" gradientUnits="userSpaceOnUse"><stop offset="0" stop-color="#BD8ACA"/><stop offset="1" stop-color="#E1C5DF"/></linearGradient></defs><path fill="url(#q)" d="m323.319 420.006.761.165c.014 1.71-36.053 66.128-40.593 74.95-22.007 1.354-44.309.581-66.363.899q-26.108.521-52.221.483c-9.942.012-19.978.254-29.899-.419-1.043-.358-1.151-.492-1.858-1.35l.214-1.011c5.359-4.453 32.155-13.874 40.111-16.972l89.372-34.203 37.561-14.414c7.53-2.864 15.114-6.101 22.915-8.128" transform="scale(.67285)"/><path fill="#2BC0A5" d="M292.79 416.475c3.432.028 7.143.994 10.519 1.62q8.83 1.65 17.678 3.191 40.557 6.711 80.685 15.64c11.502 2.454 23.113 4.427 34.487 7.445q-9.457 3.063-18.965 5.963c-3.92 1.548-8.074 2.729-12.068 4.097-13.27 4.547-26.755 8.834-39.537 14.646-4.167-3.717-8.87-6.764-13.403-10.009l-14.66-10.655c-8.407-6.02-16.6-12.329-24.991-18.354-6.482-4.654-13.169-9.06-19.744-13.584"/><path fill="#E9ABD9" d="M221.438 147.674c7.782.705 17.716 3.317 25.655 4.769 24.017 4.39 48.044 9.473 72.214 12.914-5.453 12.866-9.712 26.478-14.54 39.6-1.723 5.068-3.347 10.166-5.235 15.177-19.537-18.175-39.444-35.998-58.796-54.362-6.322-6-13.507-11.633-19.298-18.098"/><defs><linearGradient id="r" x1="552.693" x2="439.648" y1="775.761" y2="646.663" gradientUnits="userSpaceOnUse"><stop offset="0" stop-color="#2C75C1"/><stop offset="1" stop-color="#5ACDF1"/></linearGradient></defs><path fill="url(#r)" d="M406.137 672.455c12.048.654 29.066 5.289 41.378 7.669q47.108 8.955 94.007 18.944c1.473 11.144.441 24.501.491 35.956.077 17.788.843 35.68.33 53.456-4.552-2.108-22.041-17.466-27.278-21.824q-32.894-27.322-65.143-55.402c-14.652-12.87-28.87-26.229-43.785-38.799" transform="scale(.67285)"/><path fill="#E05194" d="M320.403 165.618c11.088 2.45 22.486 3.805 33.708 5.552 12.594 1.96 25.14 4.263 37.723 6.3 8.29 1.344 19.822 2.49 27.445 4.827-7.033 1.365-14.044 3.813-20.848 6.055q-11.8 3.954-23.654 7.745c-24.797 8.146-49.68 15.97-74.38 24.413 2.155-5.049 3.7-10.383 5.575-15.546q6.976-19.76 14.431-39.346"/><path fill="#5080DC" d="M420.75 345.724c3.917-1.625 8.347-2.546 12.429-3.726 7.878 16.036 16.71 32.336 25.383 47.988 4.65 8.392 9.927 16.716 13.954 25.417-8.722-4.346-17.778-7.828-26.78-11.54-11.524-4.75-23.005-9.562-34.594-14.163l-16.363-6.55c-2.416-.977-5.426-1.84-7.629-3.203l.087-.176c-.385-.7-2.198-1.132-3.003-1.432-.415-.731-.627-1.75-.63-2.596-.02-5.816 2.324-7.378 6.008-11.268 1.697-1.793 15.99-13.643 17.35-14.036.816-.235 2.118-.128 2.983-.15l.514-1.073c.461-.358.806-.554 1.39-.645 3.049-.478 6.043-1.46 8.955-2.479z"/><path fill="#E05194" d="M536.815 223.29c7.143-1.94 15.025-2.697 22.338-3.965 8.996-1.56 18.285-3.73 27.364-4.588a1993 1993 0 0 1-5.214 39.837c-1.078 7.665-2.6 15.44-3.148 23.149-9.745-4.604-19.36-9.552-29.202-13.938-7.942-3.54-16.469-6.624-24.163-10.626-.29-1.751-15.011-6.01-17.456-8.616.004-2.373 4.514-5.99 5.743-8.379 1.546-3.003 3.974-5.08 4.681-8.472.04-.186.008-.4.112-.558.915-1.404 16.423-1.694 18.945-3.845"/><defs><linearGradient id="s" x1="673.679" x2="586.09" y1="759.97" y2="662.882" gradientUnits="userSpaceOnUse"><stop offset="0" stop-color="#77338A"/><stop offset="1" stop-color="#F581CD"/></linearGradient></defs><path fill="url(#s)" d="M544.461 699.195c7.276.801 14.549 2.189 21.824 3.121l50.637 6.354q29.347 3.924 58.645 8.199c12.829 1.953 25.932 4.984 38.93 5.217-8.991 6.094-16.852 14.259-24.8 21.625-16.396 15.197-32.32 30.712-48.372 46.256-13.104-12.673-26.859-24.667-40.202-37.089-5.33-4.962-11.04-9.854-15.962-15.204-4.605-3.307-8.932-8.265-13.063-12.214q-13.684-13.274-27.637-26.265" transform="scale(.67285)"/><defs><linearGradient id="t" x1="622.021" x2="548.884" y1="529.791" y2="471.143" gradientUnits="userSpaceOnUse"><stop offset="0" stop-color="#894DB6"/><stop offset="1" stop-color="#9C73D2"/></linearGradient></defs><path fill="url(#t)" d="M591.818 415.857c2.289 2.455 7.847 14.56 9.996 18.307l24.312 42.449c5.766 9.903 12.101 19.79 17.122 30.08-9.547 2.131-19 5.243-28.446 7.816l-54.533 14.549c-14.291 3.783-28.892 6.738-43.013 11.096 5.1-9.914 11.13-19.482 16.831-29.06 18.974-31.875 39.862-62.729 57.731-95.237" transform="scale(.67285)"/><defs><linearGradient id="u" x1="538.625" x2="443.317" y1="438.084" y2="431.943" gradientUnits="userSpaceOnUse"><stop offset="0" stop-color="#91287F"/><stop offset="1" stop-color="#D66BAF"/></linearGradient></defs><path fill="url(#u)" d="M447.367 331.416c18.27 18.862 37.437 36.958 56.45 55.069 12.671 12.069 25.5 23.849 37.166 36.922-2.14 8.467-3.763 17.135-5.619 25.672-4.841 22.272-9.388 44.58-14.459 66.805q-2.166 10.29-4.447 20.555c-8.345-17.331-13.707-36.03-19.91-54.199q-16.275-46.782-31.267-93.991l-11.407-35.252c-2.291-7.02-5.187-14.327-6.507-21.581" transform="scale(.67285)"/><path fill="#80EEE6" d="M191.795 334.565c13.584 7.938 27.788 15.038 41.666 22.454 11.36 6.071 22.882 12.988 34.774 17.89-9.625 5.071-18.93 10.904-28.22 16.56q-13.026 8.04-26.147 15.923c-6.466 3.97-13.089 8.547-20.012 11.668-.228-4.761-.05-9.582-.197-14.356-.72-23.378-.981-46.765-1.864-70.14"/><defs><linearGradient id="v" x1="909.276" x2="835.171" y1="505.489" y2="458.693" gradientUnits="userSpaceOnUse"><stop offset="0" stop-color="#611B8A"/><stop offset="1" stop-color="#813BA9"/></linearGradient></defs><path fill="url(#v)" d="M860.734 415.642c15.226 3.416 30.273 8.396 45.37 12.41l27.98 7.545c5.985 1.561 12.131 2.797 17.98 4.802-17.371 25.187-36.756 48.903-55.028 73.43-7.421 10.061-15.225 19.805-22.739 29.791-5.857 7.785-11.364 15.991-17.847 23.273 2.894-50.359 2.243-100.872 4.284-151.251" transform="scale(.67285)"/><defs><linearGradient id="w" x1="252.35" x2="165.667" y1="481.789" y2="395.299" gradientUnits="userSpaceOnUse"><stop offset="0" stop-color="#6AABDD"/><stop offset="1" stop-color="#8EE6E9"/></linearGradient></defs><path fill="url(#w)" d="M150.441 408.73q45.127 3.148 90.304 5.481c26.348 1.516 52.634 3.443 79.012 4.473-9.644 4.481-19.806 7.974-29.756 11.717l-34.549 13.349c-40.495 15.618-81.476 30.326-121.404 47.357l10.312-55.323c1.717-8.822 2.904-18.634 6.081-27.054" transform="scale(.67285)"/><defs><linearGradient id="x" x1="837.646" x2="754.689" y1="652.787" y2="571.413" gradientUnits="userSpaceOnUse"><stop offset="0" stop-color="#781F76"/><stop offset="1" stop-color="#B365B0"/></linearGradient></defs><path fill="url(#x)" d="M852.891 571.193c-.198 2.478-6.114 14.895-7.389 18.14l-23.686 61.207c-4.27 11.139-9.66 22.742-12.396 34.33-7.716-6.992-18.4-12.346-27.302-17.781q-17.401-10.496-34.15-22.003c-13.485-9.368-27.804-17.785-41.621-26.667 6.917-1.39 13.819-3.898 20.567-5.967q18.076-5.498 36.072-11.25 36.364-11.655 72.432-24.199c5.797-2.021 11.724-3.668 17.473-5.81" transform="scale(.67285)"/><defs><linearGradient id="y" x1="311.987" x2="205.077" y1="576.544" y2="506.948" gradientUnits="userSpaceOnUse"><stop offset="0" stop-color="#49C1B5"/><stop offset="1" stop-color="#83ECE7"/></linearGradient></defs><path fill="url(#y)" d="M211.917 498.002c15.215-.513 30.496-.408 45.722-.538 8.637-.075 17.309-.497 25.938-.444q2.239 61.934 2.913 123.904c-24.963-21.997-51.683-42.443-77.695-63.206-8.009-6.393-16.432-12.373-24.18-19.072 2.698.501 4.779 2.659 6.975 4.241l.473-.2c-1.472-3.018-2.435-6.108-3.37-9.32.639-1.408 2.615-2.144 3.819-3.091.379-1.426.402-2.773.439-4.235 1.613-2.881 5.25-4.037 7.135-6.614 1.46-1.996 1.297-5.238 2.805-7.164 3.44-4.395 11.487-8.941 15.874-13.003-.94-.512-.579-.445-1.555-.532-1.668-.149-3.208-.256-4.85-.623z" transform="scale(.67285)"/><path fill="#2BC0A5" d="M296.713 415.267c6.12.56 12.449.106 18.596.019q14.214-.162 28.429-.172 51.48-.528 102.947.677c5.09.106 22.047-.36 26.088 1.233 1.274 4.645 1.814 14.871 2.411 20.054q2.43 22.625 5.608 45.157c-1.142.156-8.94-8.231-10.453-9.736-5.585-5.554-11.346-10.915-16.964-16.433-3.298-3.238-9.024-9.874-12.782-12.058-3.547-2.06-20.351-4.8-25.615-5.903-30.012-6.293-59.942-12.513-90.161-17.763-5.54-.962-24.474-3.31-28.104-5.075"/><path fill="#46BACD" d="M269.962 375.453c10.518 2.456 21.065 4.233 31.676 6.2l37.08 7.073q.17.282.347.561c.631.987 1.79 1.295 2.171 2.389-.366 1.099-.724 1.172-1.655 1.815-1.07 5.933-1.878 15.338-7.244 19.06-3.097 2.15-7.21-.302-10.548 1.272-2.789.327-5.832.13-8.648.165-7.44.091-14.894-.002-22.33.17-6.067.14-12.133.678-18.198.937l-32.257 1.13-24.208 1.196c-6.15.285-12.396.34-18.51 1.078 12.241-7.787 24.894-15.093 37.347-22.542 11.612-6.947 23.056-14.078 34.977-20.504"/><defs><linearGradient id="z" x1="875.252" x2="799.565" y1="538.824" y2="479.05" gradientUnits="userSpaceOnUse"><stop offset="0" stop-color="#5A1F8E"/><stop offset="1" stop-color="#8956BC"/></linearGradient></defs><path fill="url(#z)" d="M858.97 416.279c-1.938 50.824-1.899 101.728-4.554 152.529-24.655-5.884-49.797-9.977-74.647-14.962-8.724-1.749-20.632-3.315-28.825-6.139l.179-.41c-.206-1.273-.163-2.183.003-3.442 7.567-4.845 34.447-35.796 39.317-43.998 3.156-5.316 10.034-15.019 8.458-21.186 8.806-9.743 18.328-18.877 27.396-28.379 10.843-11.361 21.32-23.15 32.673-34.013" transform="scale(.67285)"/><defs><linearGradient id="A" x1="482.859" x2="323.831" y1="572.282" y2="423.97" gradientUnits="userSpaceOnUse"><stop offset="0" stop-color="#693297"/><stop offset="1" stop-color="#9696EC"/></linearGradient></defs><path fill="url(#A)" d="M326.713 418.282c13.109 9.468 27.294 17.632 40.967 26.273 15.952 10.081 31.641 20.578 47.54 30.743 11.942 7.635 24.153 14.865 35.903 22.799 15.877 10.13 31.841 20.242 47.134 31.236 5.119 3.68 10.661 7.248 15.345 11.463-35.375 4.068-70.585 9.723-105.881 14.41q-3.468.379-6.946.664c-12.129-24.842-26.42-48.765-39.315-73.241l-18.227-34.919c-5.108-9.975-9.785-20.425-16.52-29.428" transform="scale(.67285)"/><defs><linearGradient id="B" x1="746.556" x2="653.716" y1="275.59" y2="225.561" gradientUnits="userSpaceOnUse"><stop offset="0" stop-color="#DD758A"/><stop offset="1" stop-color="#EC9FA7"/></linearGradient></defs><path fill="url(#B)" d="m775.246 201.486.308.298c-2.064 6.049-5.247 12.067-7.852 17.928l-16.133 35.958q-19.974 44.918-40.874 89.413c-14.746-12.007-28.682-25.17-42.744-37.969l-40.38-36.379c7.356-3.171 14.504-7.109 21.805-10.47l89.776-42.069q9.314-4.26 18.527-8.734c5.672-2.79 11.509-6.158 17.567-7.976" transform="scale(.67285)"/><defs><linearGradient id="C" x1="294.132" x2="170.282" y1="447.742" y2="342.614" gradientUnits="userSpaceOnUse"><stop offset="0" stop-color="#80A0DF"/><stop offset="1" stop-color="#A5D6EF"/></linearGradient></defs><path fill="url(#C)" d="M209.26 295.26c3.842 3.038 7.351 7.671 10.733 11.285l24.374 25.95c26.87 28.391 54.12 56.408 80.697 85.069-18.147-.611-36.315-1.908-54.441-3l-82.527-4.709c-12.55-.777-25.152-1.358-37.66-2.657 9.774-18.802 20.126-37.283 29.89-56.097 9.637-18.571 18.722-37.594 28.934-55.841" transform="scale(.67285)"/><path fill="#E9ABD9" d="M421.315 183c4.501 3.295 8.554 7.813 12.78 11.509 14.518 12.697 28.647 25.818 43.24 38.437-6.536 4.964-16.653 10.003-24.033 14.173l-43.444 24.47c-3.64 1.91-7.082 4.459-10.917 5.954-3.87 1.508-8.488 1.888-12.578 2.557-6.85 1.12-13.715 2.163-20.515 3.563 8.672-14.73 16.592-29.947 24.868-44.905 10.265-18.553 20.83-36.93 30.599-55.758"/><defs><linearGradient id="D" x1="634.821" x2="538.209" y1="253.901" y2="173.475" gradientUnits="userSpaceOnUse"><stop offset="0" stop-color="#E26F8E"/><stop offset="1" stop-color="#F1A19E"/></linearGradient></defs><path fill="url(#D)" d="m618.529 118.645.797.747 3.235 99.761c.172 6.514.239 13.123.754 19.616.393 10.138.665 20.376 1.54 30.482-12.553-3.661-26.589-4.473-39.53-6.593-17.786-2.913-35.527-6.202-53.331-8.983-18.262-2.853-36.669-5.151-54.797-8.777 22.304-18.466 43.32-38.471 65.166-57.472l38.521-33.913c12.903-11.305 25.945-22.283 37.645-34.868" transform="scale(.67285)"/><defs><linearGradient id="E" x1="596.171" x2="502.106" y1="360.588" y2="273.353" gradientUnits="userSpaceOnUse"><stop offset="0" stop-color="#9650B0"/><stop offset="1" stop-color="#B986DB"/></linearGradient></defs><path fill="url(#E)" d="m621.995 273.1 1.078.018c.158 1.319-.584 2.473-1.155 3.621-5.118 10.291-11.103 20.319-16.671 30.386l-26.578 48.067c-12.446 22.027-24.283 44.413-36.657 66.487-14.356-16.514-31.148-30.852-46.978-45.929-16.144-15.303-31.696-31.193-47.732-46.594 13.525-3.836 26.889-9.014 40.277-13.364l80.098-25.79c17.9-5.904 35.958-12.606 54.318-16.902" transform="scale(.67285)"/><defs><linearGradient id="F" x1="371.877" x2="255.137" y1="364.994" y2="249.783" gradientUnits="userSpaceOnUse"><stop offset="0" stop-color="#8984D9"/><stop offset="1" stop-color="#A9BCEC"/></linearGradient></defs><path fill="url(#F)" d="M209.94 294.003c12.992-9.012 26.793-17.155 40.038-25.834q36.847-24.428 73.963-48.446c.041 11.663.506 23.32.532 34.98q-.266 53.478.55 106.949c-.245 10.465.272 20.972.424 31.438.095 6.543-.427 13.585.529 20.035-.101.986-.124 1.057-.75 1.912-4.036-3.104-7.605-7.975-11.081-11.754-4.61-5.012-9.425-9.814-14.177-14.689-30.379-31.171-59.6-63.47-90.028-94.591" transform="scale(.67285)"/><path fill="#E05194" d="M479.212 234.312c5.016 2.757 10.395 4.818 15.614 7.15q13.476 6.167 27.1 11.999c8.267 3.54 16.88 6.93 24.834 11.124l.219.649c2.535 1.192 7.174 2.752 9.119 4.414.696 10.585-7.32 19.202-12.523 27.615-1.324 2.14-1.895 4.636-3.349 6.7-5.28 7.504-12.966 15.652-14.418 25.01.336.25.6.354.77.744-.074.351-.047.739-.22 1.054-.528.965-2.002 2.155-2.776 3.005-4.177 4.593-8.52 8.999-12.758 13.53-5.186 5.544-10.127 11.593-15.548 16.88-1.447-9.562-2.263-19.299-3.445-28.904l-5.985-45.575q-2.166-16.244-4.146-32.512c-.979-7.594-2.27-15.222-2.488-22.883"/><path fill="#A37CD3" d="M219.323 147.162c5.557 5.897 11.876 11.157 17.794 16.692l44.359 41.218c5.712 5.36 11.733 10.555 17.213 16.138-6.187 3.993-11.875 8.849-17.766 13.27l-43.83 32.784c-5.65 4.163-11.155 8.812-17.004 12.665-.027-2.574.152-5.327-.112-7.876.399-9.125-.192-18.409-.24-27.547-.05-9.458.48-19.255-.34-28.673.262-5.605.013-11.28.013-16.894 0-17.225-.521-34.565-.087-51.777"/><defs><linearGradient id="G" x1="855.407" x2="739.509" y1="337.41" y2="269.241" gradientUnits="userSpaceOnUse"><stop offset="0" stop-color="#EB6F61"/><stop offset="1" stop-color="#FB9C91"/></linearGradient></defs><path fill="url(#G)" d="M778.044 202.908c10.092 6.794 20.226 13.592 30.195 20.563 8.338 5.832 16.482 12.044 25.396 16.981l22.103 47.047c3.651 7.874 9.935 22.854 14.495 29.462q-78.473 14.387-157.199 27.322c8.128-16.759 15.537-33.81 23.231-50.767l22.463-48.92 10.889-24.598c2.482-5.621 4.802-12.109 8.427-17.09" transform="scale(.67285)"/><defs><linearGradient id="H" x1="761.811" x2="600.899" y1="459.981" y2="400.293" gradientUnits="userSpaceOnUse"><stop offset="0" stop-color="#F655C6"/><stop offset="1" stop-color="#F897FE"/></linearGradient></defs><path fill="url(#H)" d="M709.446 348.998c.781 1.169.995 2.31 1.19 3.689 1.464 10.379 2.34 20.9 3.616 31.312l9.136 72.464c3.662 28.721 8.396 57.346 10.871 86.218-18.095-19.752-39.332-37.101-59.104-55.139q-40.868-36.603-81.185-73.812c9.564-4.601 18.912-10.347 28.203-15.501l59.633-33.535c9.204-5.215 18.302-10.732 27.64-15.696" transform="scale(.67285)"/><defs><linearGradient id="I" x1="746.752" x2="596.517" y1="246.776" y2="164.955" gradientUnits="userSpaceOnUse"><stop offset="0" stop-color="#D83066"/><stop offset="1" stop-color="#F7A4A0"/></linearGradient></defs><path fill="url(#I)" d="M619.326 119.392c.521-.024 1.047-.138 1.533.071 19.436 4.761 39.206 8.716 58.791 12.851 6.626 1.398 23.88 4.019 28.725 6.602 3.794 2.022 22.107 20.115 25.88 24.412 13.528 11.439 25.03 25.938 39.352 36.3-32.765 14.651-64.853 30.97-97.492 45.936-16.423 8.234-33.442 15.167-49.699 23.778-.333-11.091-.572-22.262-1.416-33.327-.576.903-1.209 1.795-1.685 2.754-.515-6.493-.582-13.102-.754-19.616z" transform="scale(.67285)"/><path fill="#1C0000" d="M419.906 137.822c.725 6.822.705 14.112.627 20.981-.388.608-.814 1.208-1.134 1.853-.347-4.369-.392-8.816-.508-13.198l.337.251.466-.318c.557-2.934-.078-6.196.178-9.206q.016-.181.034-.363"/><path d="M416.715 80.333c.35-.016.704-.093 1.031.048.928 12.433 1.225 24.945 1.646 37.404.22 6.518.962 13.542.514 20.037q-.018.18-.034.363c-.256 3.01.38 6.272-.178 9.206l-.466.318-.337-.251z"/><defs><linearGradient id="J" x1="562.812" x2="476.364" y1="191.569" y2="130.417" gradientUnits="userSpaceOnUse"><stop offset="0" stop-color="#D34184"/><stop offset="1" stop-color="#F38498"/></linearGradient></defs><path fill="url(#J)" d="M508.307 89.509c7.228-1.628 26.355-6.484 32.864-5.87 4.712.443 65.937 29.026 73.61 33.519.666.39 1.182.75 1.667 1.353-30.903 29.494-63.538 57.519-95.724 85.615-14.821 12.937-29.011 26.787-44.263 39.206-4.92-17.052-7.609-34.977-11.001-52.395-2.264-11.626-5.527-23.866-6.546-35.618-1.553-3.704-1.868-9.083-2.69-13.099-2.84-13.87-6.078-27.731-8.157-41.739 4.42.306 10.108-1.478 14.481-2.318l28.395-5.542c5.716-1.12 11.567-2.541 17.364-3.112" transform="scale(.67285)"/><path fill="#F197A8" d="M342.015 60.226c.184.038.367.082.552.115 2.284.409 6.052-.646 8.347-1.27-.125.983-.425 1.29-1.147 1.992-1.963 1.908-4.386 3.387-6.427 5.235-7.036 6.37-13.538 13.076-19.967 20.048-1.732 1.879-3.807 3.64-5.312 5.695-1.817 2.478-3.483 5.697-4.578 8.55-.729 1.898-2.245 1.937-3.097 4.48-.163.485-.298.691-.684 1.02-.457-.515-.316-.636-.603-1.163-.084-.154-.211-.281-.318-.421-1.045-2.493-1.257-6.112-1.81-8.814-1.91-9.332-4.09-18.659-5.488-28.084 2.974.206 6.801-.995 9.743-1.56l19.106-3.729c3.846-.754 7.783-1.71 11.683-2.094M256.246 60.867c2.02-1.086 29.826 4.603 34.026 5.365 2.806.51 6.87 1.764 9.64 1.407 1.907 5.2 2.532 12.137 3.75 17.647 3.257 14.744 5.964 29.694 8.654 44.552 2.092 11.553 4.05 23.197 7.17 34.527-7.596-.848-15.315-2.66-22.864-3.97l-49.638-8.943c-8.123-1.54-19.535-4.567-27.587-4.862 12.229-28.574 24.021-57.415 36.85-85.723"/><defs><linearGradient id="K" x1="544.191" x2="371.276" y1="492.005" y2="362.54" gradientUnits="userSpaceOnUse"><stop offset="0" stop-color="#974FB0"/><stop offset="1" stop-color="#CC8ED9"/></linearGradient></defs><path fill="url(#K)" d="M444.896 330.188c.69.794 13.797 43.596 15.682 49.403q16.857 52.826 35.063 105.202c6.135 17.868 12.095 35.58 18.781 53.262-22.597-16.256-46.423-30.761-69.547-46.253l-116.457-74.203c20.556-16.415 42.102-31.52 63.022-47.465l28.851-21.843c8.052-6.175 15.987-12.736 24.605-18.103" transform="scale(.67285)"/></svg>