<svg xmlns="http://www.w3.org/2000/svg" xml:space="preserve" id="Layer_1" version="1.1" viewBox="0 0 64 64"><style>.st0{fill:#134563}</style><g id="Icon-Share-Google" transform="translate(280 380)"><path id="Fill-61" d="M-264.2-339.9c-4.4 0-7.9-3.5-7.9-7.9s3.5-7.9 7.9-7.9 7.9 3.5 7.9 7.9c0 4.3-3.5 7.9-7.9 7.9m0-12.9c-2.7 0-4.9 2.2-4.9 4.9s2.2 4.9 4.9 4.9 4.9-2.2 4.9-4.9c0-2.6-2.2-4.9-4.9-4.9" class="st0"/><path id="Fill-62" d="M-232.1-356c-4.4 0-7.9-3.5-7.9-7.9s3.5-7.9 7.9-7.9 7.9 3.5 7.9 7.9-3.6 7.9-7.9 7.9m0-12.8c-2.7 0-4.9 2.2-4.9 4.9s2.2 4.9 4.9 4.9 4.9-2.2 4.9-4.9-2.2-4.9-4.9-4.9" class="st0"/><path id="Fill-63" d="M-232.1-323.9c-4.4 0-7.9-3.5-7.9-7.9s3.5-7.9 7.9-7.9 7.9 3.5 7.9 7.9-3.6 7.9-7.9 7.9m0-12.8c-2.7 0-4.9 2.2-4.9 4.9s2.2 4.9 4.9 4.9 4.9-2.2 4.9-4.9-2.2-4.9-4.9-4.9" class="st0"/><path id="Fill-64" d="m-238.6-333.2-20.6-10.3 1.4-2.9 20.7 10.3z" class="st0"/><path id="Fill-65" d="m-257.8-349.3-1.4-2.8 20.6-10.3 1.5 2.8z" class="st0"/></g></svg>