<svg xmlns="http://www.w3.org/2000/svg" data-name="Layer 1" viewBox="0 0 64 64"><path d="M52.864 19.534c3.8 6.01 8.981 6.627 9.2 6.65l.217-1.988c-.181-.021-4.472-.577-7.726-5.731-3.93-6.208-7.212-7.841-15.263-7.585a39 39 0 0 0-4.529.38A18.9 18.9 0 0 0 28 10a1 1 0 0 0-1 1v5.028a4.5 4.5 0 0 0 0 8.944V29a1 1 0 0 0 1 1h18a1 1 0 0 0 1-1 19 19 0 0 0-.129-2.184l14.7 6.934.854-1.809-21.21-10a.665.665 0 0 1 .429-1.25l7.691 1.736.441-1.951-5.493-1.24a19 19 0 0 0-6.151-6.287c.405-.023.8-.056 1.217-.068 7.803-.247 10.218 1.445 13.515 6.653M41.5 18.678a2.64 2.64 0 0 0-2.41 1.522 2.67 2.67 0 0 0 1.273 3.547l4.317 2.035A17 17 0 0 1 44.97 28H29v-4a1 1 0 0 0-1-1h-.5a2.5 2.5 0 0 1 0-5h.5a1 1 0 0 0 1-1v-4.97a17.04 17.04 0 0 1 12.5 6.648M32 1h2v4h-2zM37.878 5.707l2.829-2.828 1.414 1.414-2.828 2.829zM23.879 4.293l1.414-1.415 2.829 2.829-1.415 1.414z"/><path d="M19 63a7.01 7.01 0 0 0 7-7v-6.511A16.94 16.94 0 0 0 36 34a1 1 0 0 0-1-1H20v-3a1 1 0 0 0-1-1h-1a2 2 0 0 1 0-4h1a1 1 0 0 0 1-1v-6a1 1 0 0 0-1-1c-.273 0-.546.01-.827.021A17 17 0 0 0 12 49.489V56a7.01 7.01 0 0 0 7 7m3.53-3.464A4.93 4.93 0 0 1 19 61a5 5 0 0 1-4.576-3h9.153a5 5 0 0 1-1.047 1.536M24 56H14v-3h10ZM4.009 33.587A15.04 15.04 0 0 1 18 19.034V23a4 4 0 0 0 0 8v3a1 1 0 0 0 1 1h14.967a14.95 14.95 0 0 1-9.343 12.9 1 1 0 0 0-.624.93V51H14v-2.17a1 1 0 0 0-.624-.927 15.075 15.075 0 0 1-9.367-14.316"/></svg>