<svg xmlns="http://www.w3.org/2000/svg" xml:space="preserve" width="32" height="32"><g fill="#333"><path d="M25 13V9a9 9 0 0 0-9-9 9 9 0 0 0-9 9v4a3 3 0 0 0-3 3v7a9 9 0 0 0 9 9h6a9 9 0 0 0 9-9v-7a3 3 0 0 0-3-3M9 9a7 7 0 1 1 14 0v4h-2V9.002a5 5 0 0 0-5-5 5 5 0 0 0-5 5V13H9zm11 0v4h-8V9a4 4 0 0 1 8 0m6 10v4c0 3.859-3.141 7-7 7h-6c-3.859 0-7-3.141-7-7v-7a1 1 0 0 1 1-1h18c.551 0 1 .448 1 1z"/><path d="M16 19a2 2 0 0 0-2 2c0 .607.333 1.76.667 2.672.272.742.614 1.326 1.333 1.326.782 0 1.061-.578 1.334-1.316.338-.914.666-2.073.666-2.682a2 2 0 0 0-2-2"/></g></svg>