<?xml version="1.0" ?><svg viewBox="0 0 512 512" xmlns="http://www.w3.org/2000/svg"><title/><g id="Promotion"><path d="M372.4629,139.0708,299.3262,65.93a61.3434,61.3434,0,0,0-86.6485,0l-73.1445,73.1406c-8.59,8.5938-15.32,24.8516-15.32,37V437.6255a26.3911,26.3911,0,0,0,26.3594,26.3594H361.4316a26.39,26.39,0,0,0,26.3555-26.3594V176.0708C387.7871,163.9146,381.0566,147.6646,372.4629,139.0708Zm-.6758,298.5547a10.3694,10.3694,0,0,1-10.3555,10.3594H150.5723a10.3727,10.3727,0,0,1-10.3594-10.3594V176.0708c0-8.0156,4.9726-20.0156,10.6367-25.6875L223.99,77.2427a45.3327,45.3327,0,0,1,64.0235,0L361.15,150.3833c5.668,5.6641,10.6367,17.6719,10.6367,25.6875Z"/><path d="M220.8145,293.3911a28.8184,28.8184,0,0,0,20.3789-49.1875H241.19c-10.8907-10.8984-29.875-10.8906-40.75,0a28.8144,28.8144,0,0,0,20.375,49.1875Zm-9.0625-37.875a12.8136,12.8136,0,1,1,18.125,18.1172,13.12,13.12,0,0,1-18.125,0A12.83,12.83,0,0,1,211.752,255.5161Z"/><path d="M255.998,136.5474A27.7813,27.7813,0,0,0,275.6621,89.11h-.0039c-10.5078-10.5078-28.8281-10.5-39.3125,0a27.7813,27.7813,0,0,0,19.6523,47.4375Zm-8.3359-36.125a11.793,11.793,0,1,1-3.4609,8.3437A11.7226,11.7226,0,0,1,247.6621,100.4224Z"/><path d="M270.8105,314.5708a28.8165,28.8165,0,1,0,40.75,0A28.6353,28.6353,0,0,0,270.8105,314.5708Zm29.4375,29.4375a12.8159,12.8159,0,1,1,3.754-9.0625A12.8491,12.8491,0,0,1,300.248,344.0083Z"/><path d="M312.0566,243.7036a7.9971,7.9971,0,0,0-11.3125,0L199.9434,344.5005a7.9991,7.9991,0,1,0,11.3125,11.3125L312.0566,255.0161A7.9971,7.9971,0,0,0,312.0566,243.7036Z"/></g></svg>