<?xml version="1.0" ?><svg data-name="Layer 1" id="Layer_1" viewBox="0 0 512 512" xmlns="http://www.w3.org/2000/svg"><path d="M327.54,229.36a66.32,66.32,0,1,0-66.32,66.32A66.39,66.39,0,0,0,327.54,229.36Zm-66.32,50.38a50.38,50.38,0,1,1,50.38-50.38A50.45,50.45,0,0,1,261.22,279.74Z"/><path d="M280.37,236.31a19.87,19.87,0,0,0-6-5.62,23.59,23.59,0,0,0-6.81-2.86V209a13.49,13.49,0,0,1,1.94,1.91,8.69,8.69,0,0,1,1.55,2.8,16,16,0,0,1,.73,3.54,5.19,5.19,0,0,0,5.88,4.9c2.57-.31,4.45-2.17,5.13-5.89-.14-5.74-2-10.43-5.6-14a21,21,0,0,0-9.63-5.4v-2.14a6.05,6.05,0,0,0-10.22-4.4,5.9,5.9,0,0,0-1.82,4.4v1.52a28.69,28.69,0,0,0-5.76,1.5,21.48,21.48,0,0,0-7.62,4.68,20,20,0,0,0-4.77,7,19,19,0,0,0-1.21,8.73,20.25,20.25,0,0,0,7,13.44,25.47,25.47,0,0,0,12.4,5.37l0,18.82a14.86,14.86,0,0,1-6.55-2.54,10.62,10.62,0,0,1-4.15-5.75,5.47,5.47,0,0,0-5.47-4.81,5.57,5.57,0,0,0-4.46,1.77,4.82,4.82,0,0,0-1,4.38,19.66,19.66,0,0,0,9,13.52,30.87,30.87,0,0,0,12.62,4.33v1.2a5.89,5.89,0,0,0,2,4.62A6.11,6.11,0,0,0,261.5,274a6.4,6.4,0,0,0,3.82-1.31,5.71,5.71,0,0,0,2.28-4.74v-1.39c4.64-.89,8.26-2.75,10.79-5.55a18.47,18.47,0,0,0,5.09-11.18,23.5,23.5,0,0,0-.35-6.5A18.58,18.58,0,0,0,280.37,236.31Zm-24.81-10.58a12.74,12.74,0,0,1-2.09-.79,15.52,15.52,0,0,1-3.82-2.58,5.94,5.94,0,0,1-1.46-2,12.42,12.42,0,0,1-.64-2.89,9.36,9.36,0,0,1,2.74-7.29,10.92,10.92,0,0,1,5.27-2.89Zm17,23.68a6.55,6.55,0,0,1-.39,1.59,6.35,6.35,0,0,1-1.09,2,8.65,8.65,0,0,1-2.67,2,5.55,5.55,0,0,1-.79.36v-16a8.88,8.88,0,0,1,2.94,2.1c1.41,1.63,2.08,4.27,2,7.84Z"/><path d="M99,404.68h88V351.1a106.77,106.77,0,0,0-20.84-63.59l-24.22-33a69,69,0,0,0-55.33-28.06c-.07,0-.14,0-.14,0a1.7,1.7,0,0,0-1.51.88,1.72,1.72,0,0,0,0,1.78l46.55,88.34a9.56,9.56,0,1,1-16.91,8.92L68.06,238.17a20.72,20.72,0,0,1,.43-20.58A21,21,0,0,1,76.26,210L65.88,95.47a43.56,43.56,0,0,0-22.34-30.8c-4.78-2.61-7.87-1.22-9-.52a7.72,7.72,0,0,0-3.85,6.77V242.73A110.56,110.56,0,0,0,42.73,292.8L98.18,401.23A9.29,9.29,0,0,1,99,404.68Z"/><path d="M99.23,425.62H48.49v59.87H229.67V425.62H99.23ZM202.73,458a15.42,15.42,0,1,1-15.42-15.41A15.42,15.42,0,0,1,202.73,458Z"/><path d="M156.66,242.38,153.29,204a60.81,60.81,0,0,0-22.36-41.76l5.64,60.82A87.46,87.46,0,0,1,156.66,242.38Z"/><path d="M116.4,212.72l-7.35-79.11a37.24,37.24,0,0,0-23.37-31.27l9.58,105.43A87.93,87.93,0,0,1,116.4,212.72Z"/><path d="M375.43,223.1l5.64-60.82A60.81,60.81,0,0,0,358.71,204l-3.37,38.34A87.46,87.46,0,0,1,375.43,223.1Z"/><path d="M426.32,102.34A37.24,37.24,0,0,0,403,133.61l-7.35,79.11a88,88,0,0,1,21.14-4.95Z"/><path d="M325,425.62H282.33v59.87H463.51V425.62H325Zm-.33,47.8A15.42,15.42,0,1,1,340.11,458,15.42,15.42,0,0,1,324.69,473.42Z"/><path d="M477.48,64.15c-1.15-.7-4.24-2.09-9,.52a43.56,43.56,0,0,0-22.34,30.8L435.74,210a21,21,0,0,1,7.77,7.62,20.72,20.72,0,0,1,.43,20.58l-46.49,88.21a9.56,9.56,0,1,1-16.91-8.92l46.55-88.34a1.72,1.72,0,0,0,0-1.78,1.7,1.7,0,0,0-1.51-.88s-.07,0-.14,0a69,69,0,0,0-55.33,28.06l-24.22,33A106.77,106.77,0,0,0,325,351.1v53.58h88a9.29,9.29,0,0,1,.83-3.45L469.27,292.8a110.56,110.56,0,0,0,12.06-50.07V70.92A7.72,7.72,0,0,0,477.48,64.15Z"/></svg>