<?xml version="1.0" encoding="utf-8" ?>
<svg xmlns="http://www.w3.org/2000/svg" xmlns:xlink="http://www.w3.org/1999/xlink" width="1024" height="1024">
	<path fill="#0E8189" transform="translate(0.000244141 0)" d="M524.553 45.7749C604.299 46.605 691.859 73.4173 758.789 116.952C772.432 125.826 785.935 135.495 798.642 145.656C805.923 151.477 812.853 157.714 820.16 163.508C801.235 183.23 781.348 202.062 761.925 221.288C752.04 231.072 742.485 241.228 732.742 251.158C725.993 258.285 718.818 264.977 711.918 271.953L645.587 338.059C607.93 309.562 571.51 295.24 524.467 291.183L524.553 45.7749Z"/>
	<path fill="#27B9B0" transform="translate(0.000244141 0)" d="M837.237 178.82C840.24 180.509 849.046 190.989 851.778 194.064C883.633 229.927 911.468 270.365 931.046 314.289Q933.02 318.685 934.903 323.121Q936.787 327.557 938.58 332.03Q940.373 336.503 942.074 341.012Q943.775 345.52 945.384 350.063Q946.992 354.605 948.508 359.18Q950.024 363.754 951.446 368.359Q952.868 372.963 954.196 377.596Q955.524 382.228 956.758 386.887Q957.991 391.545 959.129 396.228Q960.267 400.911 961.309 405.616Q962.351 410.321 963.297 415.046Q964.243 419.771 965.092 424.515Q965.942 429.258 966.694 434.018Q967.447 438.778 968.102 443.552Q968.757 448.327 969.315 453.113Q969.872 457.9 970.332 462.697Q970.792 467.494 971.154 472.299Q971.516 477.105 971.78 481.917Q972.043 486.728 972.209 491.545Q972.375 496.361 972.442 501.179Q972.509 505.998 972.478 510.817Q972.447 515.636 972.318 520.453Q972.189 525.27 971.961 530.084Q971.734 534.898 971.408 539.706Q971.083 544.514 970.659 549.314Q970.235 554.114 969.714 558.905Q969.192 563.696 968.573 568.475Q967.954 573.254 967.238 578.02Q966.521 582.785 965.708 587.535Q964.894 592.285 963.984 597.017Q963.074 601.749 962.067 606.462Q961.061 611.175 959.958 615.866C954.125 640.211 945.786 663.62 936.819 686.949C931.358 685.419 926.035 683.211 920.707 681.271L895.143 672.147Q856.632 658.806 818.377 644.747L750.315 620.044C734.648 614.252 718.812 607.659 702.779 602.992C706.184 594.553 710.108 586.367 713.208 577.795C720.578 557.418 724.395 534.575 724.788 512.935C725.92 450.508 705.028 399.416 661.886 354.555Q718.876 298.576 774.74 241.471L813.068 203.12C821.174 195.114 829.682 187.353 837.237 178.82Z"/>
	<path fill="#3D9DC4" transform="translate(0.000244141 0)" d="M193.026 174.232C200.409 167.779 207.498 160.973 214.949 154.605C223.702 147.126 232.974 140.126 242.282 133.357Q247.923 129.284 253.683 125.382Q259.444 121.479 265.318 117.751Q271.193 114.023 277.176 110.472Q283.159 106.921 289.246 103.551Q295.333 100.18 301.518 96.9937Q307.703 93.807 313.981 90.8068Q320.259 87.8065 326.623 84.9953Q332.988 82.1842 339.433 79.5647Q345.879 76.9452 352.401 74.5198Q358.922 72.0943 365.513 69.8649Q372.104 67.6356 378.758 65.6044Q385.413 63.5733 392.125 61.7421Q398.838 59.9109 405.602 58.2813Q412.366 56.6517 419.176 55.2252Q425.986 53.7987 432.835 52.5766Q439.685 51.3544 446.568 50.3377C465.172 47.6514 483.576 46.5143 502.333 45.7833C502.825 86.5372 501.728 127.33 501.992 168.097L502.543 251.613C502.531 264.693 502.758 277.855 502.197 290.922C463.497 294.315 425.424 305.357 393.09 327.488C383.627 333.965 374.9 341.519 366.191 348.958C356.372 339.807 346.184 328.276 336.561 318.491L278.558 260.347L224.798 206.6C214.166 195.996 202.87 185.572 193.026 174.232Z"/>
	<path fill="#F7475B" transform="translate(0.000244141 0)" d="M193.026 174.232C202.87 185.572 214.166 195.996 224.798 206.6L278.558 260.347L336.561 318.491C346.184 328.276 356.372 339.807 366.191 348.958Q356.831 358.138 348.602 368.344C323.38 397.328 307.629 436.744 301.664 474.444Q301.318 476.617 301.017 478.797Q300.716 480.977 300.46 483.163Q300.204 485.349 299.993 487.539Q299.783 489.73 299.617 491.925Q299.452 494.119 299.332 496.316Q299.213 498.514 299.138 500.713Q299.064 502.913 299.035 505.113Q299.007 507.314 299.023 509.514Q299.04 511.715 299.102 513.915Q299.165 516.115 299.272 518.313Q299.38 520.511 299.533 522.706Q299.687 524.902 299.885 527.093Q300.084 529.285 300.328 531.472Q300.572 533.659 300.861 535.841Q301.15 538.023 301.484 540.198Q301.819 542.373 302.198 544.541Q302.577 546.708 303.001 548.868Q303.425 551.027 303.893 553.178Q304.362 555.328 304.875 557.468Q305.388 559.608 305.945 561.737Q306.502 563.866 307.103 565.983Q307.704 568.1 308.349 570.204Q308.993 572.309 309.682 574.399Q310.37 576.489 311.101 578.565Q311.832 580.641 312.606 582.701Q313.38 584.761 314.197 586.804Q315.013 588.848 315.872 590.874Q316.73 592.901 317.63 594.909Q318.531 596.917 319.472 598.906Q320.414 600.895 321.397 602.864Q322.379 604.833 323.403 606.782Q324.426 608.73 325.489 610.657C330.351 619.32 336.127 627.291 341.956 635.319L221.323 754.536C202.826 772.716 185.128 792.255 165.777 809.5C151.971 796.38 140.73 779.887 130.155 764.166Q127.974 760.95 125.848 757.698Q123.722 754.445 121.653 751.156Q119.583 747.867 117.571 744.543Q115.559 741.219 113.604 737.861Q111.649 734.503 109.752 731.112Q107.855 727.72 106.016 724.297Q104.178 720.873 102.399 717.419Q100.62 713.964 98.9006 710.479Q97.1812 706.995 95.5221 703.481Q93.8629 699.967 92.2645 696.426Q90.666 692.884 89.1287 689.315Q87.5915 685.746 86.1159 682.152Q84.6402 678.557 83.2267 674.938Q81.8132 671.318 80.4621 667.675Q79.1111 664.031 77.8229 660.365Q76.5348 656.699 75.3099 653.012Q74.085 649.324 72.9238 645.616Q71.7626 641.908 70.6653 638.18Q69.5681 634.452 68.5351 630.706Q67.5022 626.961 66.5339 623.197Q65.5656 619.434 64.6621 615.655Q63.7587 611.876 62.9205 608.081Q62.0822 604.287 61.3094 600.479Q60.5366 596.671 59.8294 592.85Q59.1222 589.029 58.4809 585.197Q57.8395 581.364 57.2643 577.521Q56.689 573.678 56.1799 569.826Q55.6709 565.974 55.2282 562.113Q54.7855 558.253 54.4093 554.385Q54.0331 550.518 53.7235 546.644Q53.4139 542.771 53.171 538.893Q52.9281 535.015 52.752 531.133Q52.455 525.412 52.2993 519.685Q52.1435 513.958 52.1289 508.229Q52.1144 502.5 52.2411 496.772Q52.3679 491.045 52.6358 485.322Q52.9037 479.599 53.3126 473.885Q53.7216 468.17 54.2713 462.468Q54.821 456.765 55.5111 451.078Q56.2013 445.391 57.0315 439.722Q57.8617 434.054 58.8314 428.407Q59.8011 422.761 60.9097 417.14Q62.0183 411.519 63.2652 405.928Q64.5121 400.336 65.8964 394.777Q67.2808 389.218 68.8018 383.694Q70.3229 378.171 71.9796 372.687Q73.6364 367.202 75.4278 361.761Q77.2193 356.319 79.1444 350.923Q81.0695 345.527 83.1271 340.18Q85.1847 334.834 87.3735 329.539Q89.5622 324.245 91.8809 319.006Q94.1996 313.767 96.6467 308.587Q99.0938 303.407 101.668 298.289Q104.242 293.171 106.942 288.117Q109.641 283.064 112.464 278.079Q115.288 273.094 118.233 268.18Q121.178 263.267 124.244 258.427Q127.31 253.587 130.494 248.824Q133.678 244.061 136.978 239.379Q140.279 234.696 143.694 230.096Q147.109 225.496 150.636 220.982Q154.163 216.467 157.801 212.041Q161.438 207.615 165.184 203.28Q168.93 198.945 172.781 194.704C179.346 187.848 185.783 180.37 193.026 174.232Z"/>
	<path fill="#fff5e3" transform="translate(0.000244141 0)" d="M193.026 174.232C202.87 185.572 214.166 195.996 224.798 206.6L278.558 260.347L336.561 318.491C346.184 328.276 356.372 339.807 366.191 348.958Q356.831 358.138 348.602 368.344L226.033 246.651L191.774 212.844C185.568 206.745 179.479 200.268 172.781 194.704C179.346 187.848 185.783 180.37 193.026 174.232Z"/>
	<path fill="#6F2192" transform="translate(0.000244141 0)" d="M690.69 625.597C699.443 628.004 708.043 631.66 716.501 634.932L862.179 687.072C877.473 692.514 892.6 698.41 907.91 703.82C913.793 705.899 919.712 708.256 925.726 709.921C912.224 738.064 895.573 763.489 876.347 787.981Q873.806 791.26 871.206 794.494Q868.605 797.727 865.948 800.913Q863.29 804.098 860.575 807.236Q857.86 810.373 855.089 813.461Q852.318 816.549 849.491 819.586Q846.665 822.624 843.784 825.61Q840.904 828.596 837.97 831.529Q835.036 834.463 832.05 837.343Q829.063 840.223 826.026 843.049Q822.988 845.875 819.9 848.646Q816.811 851.416 813.674 854.131Q810.536 856.846 807.35 859.503Q804.164 862.161 800.93 864.76Q797.697 867.36 794.417 869.901Q791.137 872.442 787.812 874.923Q784.487 877.405 781.118 879.826Q777.748 882.247 774.336 884.607Q770.923 886.967 767.469 889.265Q764.015 891.563 760.519 893.798Q757.024 896.033 753.489 898.205Q749.954 900.377 746.38 902.485Q742.807 904.593 739.196 906.636Q735.585 908.68 731.938 910.657Q728.29 912.635 724.608 914.547Q720.926 916.458 717.21 918.303Q713.493 920.148 709.745 921.926Q705.996 923.703 702.216 925.413Q698.435 927.123 694.625 928.765Q690.814 930.406 686.975 931.978Q683.135 933.551 679.268 935.054Q675.401 936.557 671.507 937.99Q667.614 939.422 663.695 940.785Q658.351 942.646 652.963 944.375Q647.574 946.105 642.146 947.702Q636.717 949.3 631.251 950.764Q625.785 952.229 620.285 953.559Q614.784 954.89 609.253 956.085Q603.722 957.281 598.163 958.341Q592.605 959.402 587.022 960.326Q581.439 961.25 575.835 962.038Q570.231 962.825 564.61 963.476Q558.988 964.126 553.353 964.639Q547.717 965.152 542.071 965.528Q536.424 965.903 530.77 966.14Q525.116 966.377 519.458 966.477Q513.8 966.576 508.142 966.536Q502.483 966.497 496.827 966.32Q491.171 966.143 485.52 965.827Q479.87 965.512 474.23 965.059Q468.589 964.605 462.961 964.014Q457.333 963.423 451.721 962.695Q446.109 961.967 440.517 961.102Q434.924 960.237 429.355 959.236Q423.785 958.234 418.242 957.097Q412.698 955.96 407.184 954.688Q401.67 953.416 396.189 952.01Q390.707 950.603 385.262 949.063Q379.817 947.523 374.411 945.851Q369.004 944.178 363.641 942.375Q358.277 940.571 352.959 938.636Q347.641 936.702 342.372 934.638Q337.103 932.574 331.885 930.383Q326.668 928.191 321.506 925.872Q316.344 923.554 311.24 921.11Q303.575 917.464 296.054 913.529Q288.533 909.595 281.167 905.377Q273.801 901.16 266.6 896.665Q259.399 892.171 252.375 887.406Q245.35 882.641 238.512 877.613Q231.674 872.585 225.031 867.3Q218.389 862.016 211.952 856.483Q205.515 850.95 199.293 845.176C193.802 840.059 187.212 834.818 182.764 828.792C202.461 807.5 223.79 787.404 244.233 766.813L300.288 710.982C312.948 698.331 325.363 685.358 338.301 672.993C345.047 666.885 351.088 660.033 357.929 654.036Q369.678 666.353 383.117 676.8Q385.176 678.401 387.274 679.951Q389.372 681.5 391.507 682.998Q393.643 684.495 395.815 685.939Q397.987 687.383 400.195 688.772Q402.402 690.162 404.643 691.497Q406.884 692.831 409.157 694.11Q411.43 695.388 413.734 696.61Q416.039 697.832 418.373 698.997Q420.706 700.161 423.068 701.268Q425.43 702.374 427.819 703.422Q430.208 704.469 432.621 705.457Q435.035 706.445 437.473 707.373Q439.91 708.301 442.37 709.168Q444.83 710.036 447.31 710.842Q449.791 711.648 452.291 712.393Q454.79 713.137 457.308 713.819Q459.825 714.502 462.359 715.121Q464.892 715.741 467.44 716.298Q469.988 716.855 472.549 717.348Q475.111 717.842 477.683 718.272Q480.256 718.702 482.838 719.068Q485.42 719.434 488.011 719.736Q490.602 720.038 493.199 720.276Q495.797 720.514 498.399 720.687Q501.001 720.861 503.607 720.97Q506.213 721.078 508.821 721.123Q511.429 721.167 514.037 721.147Q516.645 721.127 519.252 721.042Q521.859 720.957 524.463 720.808Q527.067 720.658 529.666 720.444Q532.266 720.231 534.859 719.952Q537.452 719.674 540.038 719.332C590.524 712.941 635.376 687.577 669.912 650.728C677.37 642.77 684.016 634.209 690.69 625.597Z"/>
	<!-- <path fill="#2E1E79" transform="translate(0.000244141 0)" d="M690.69 625.597C699.443 628.004 708.043 631.66 716.501 634.932C708.075 646.429 700.189 658.116 690.656 668.754Q688.907 670.697 687.116 672.601Q685.326 674.505 683.495 676.371Q681.664 678.236 679.793 680.062Q677.923 681.888 676.013 683.673Q674.104 685.458 672.156 687.202Q670.209 688.945 668.224 690.646Q666.24 692.348 664.219 694.006Q662.199 695.664 660.143 697.279Q658.087 698.893 655.997 700.463Q653.907 702.033 651.784 703.557Q649.66 705.082 647.505 706.56Q645.349 708.039 643.162 709.471Q640.975 710.903 638.758 712.287Q636.541 713.672 634.295 715.008Q632.048 716.345 629.774 717.633Q627.499 718.921 625.197 720.159Q622.895 721.398 620.568 722.587Q618.24 723.776 615.887 724.915Q613.534 726.053 611.157 727.141Q608.78 728.229 606.38 729.265Q603.981 730.302 601.559 731.286Q599.138 732.271 596.696 733.203Q594.254 734.136 591.792 735.015Q589.331 735.895 586.851 736.721Q584.371 737.548 581.874 738.321Q579.377 739.094 576.864 739.813Q574.351 740.532 571.823 741.197Q569.295 741.862 566.753 742.472Q564.212 743.082 561.658 743.638Q559.103 744.194 556.538 744.694Q553.972 745.195 551.396 745.64Q548.821 746.085 546.236 746.475Q543.392 746.899 540.538 747.253Q537.685 747.606 534.823 747.891Q531.962 748.175 529.094 748.389Q526.227 748.603 523.355 748.747Q520.483 748.891 517.608 748.964Q514.734 749.038 511.858 749.042Q508.983 749.045 506.108 748.978Q503.233 748.911 500.361 748.774Q497.489 748.637 494.621 748.43Q491.753 748.223 488.891 747.946Q486.029 747.669 483.174 747.321Q480.32 746.974 477.475 746.558Q474.629 746.141 471.795 745.655Q468.961 745.169 466.14 744.614Q463.318 744.058 460.511 743.434Q457.704 742.81 454.914 742.118Q452.123 741.425 449.35 740.665Q446.576 739.905 443.823 739.077Q441.069 738.249 438.336 737.354Q435.604 736.459 432.894 735.497Q430.184 734.536 427.498 733.508Q424.812 732.481 422.153 731.388Q419.493 730.295 416.861 729.138Q414.228 727.98 411.625 726.759Q409.022 725.537 406.449 724.253Q403.877 722.968 401.336 721.621Q398.796 720.274 396.289 718.865Q393.782 717.456 391.311 715.987Q388.839 714.517 386.404 712.987Q383.969 711.458 381.573 709.869Q379.176 708.28 376.819 706.634Q374.461 704.987 372.145 703.283C360.126 694.459 347.857 684.497 338.301 672.993C345.047 666.885 351.088 660.033 357.929 654.036Q369.678 666.353 383.117 676.8Q385.176 678.401 387.274 679.951Q389.372 681.5 391.507 682.998Q393.643 684.495 395.815 685.939Q397.987 687.383 400.195 688.772Q402.402 690.162 404.643 691.497Q406.884 692.831 409.157 694.11Q411.43 695.388 413.734 696.61Q416.039 697.832 418.373 698.997Q420.706 700.161 423.068 701.268Q425.43 702.374 427.819 703.422Q430.208 704.469 432.621 705.457Q435.035 706.445 437.473 707.373Q439.91 708.301 442.37 709.168Q444.83 710.036 447.31 710.842Q449.791 711.648 452.291 712.393Q454.79 713.137 457.308 713.819Q459.825 714.502 462.359 715.121Q464.892 715.741 467.44 716.298Q469.988 716.855 472.549 717.348Q475.111 717.842 477.683 718.272Q480.256 718.702 482.838 719.068Q485.42 719.434 488.011 719.736Q490.602 720.038 493.199 720.276Q495.797 720.514 498.399 720.687Q501.001 720.861 503.607 720.97Q506.213 721.078 508.821 721.123Q511.429 721.167 514.037 721.147Q516.645 721.127 519.252 721.042Q521.859 720.957 524.463 720.808Q527.067 720.658 529.666 720.444Q532.266 720.231 534.859 719.952Q537.452 719.674 540.038 719.332C590.524 712.941 635.376 687.577 669.912 650.728C677.37 642.77 684.016 634.209 690.69 625.597Z"/> -->
</svg>
