<?xml version="1.0" encoding="UTF-8"?>
<svg xmlns="http://www.w3.org/2000/svg" xmlns:xlink="http://www.w3.org/1999/xlink" viewBox="0 0 1200 1200">
<path class="bulb-path" d="m497.59,851.51l200.24-13.54c.46-.54.98-1.05,1.46-1.53,2.62-2.53,5.57-4.66,8.3-7.01,1.67-1.47,3.25-2.64,2.07-4.92-1.59-3.08-6.53-6.57-9.74-9.62-.78-.72-1.46-1.41-1.97-2.08l-198.44,16.39c-2.93,3.58-6.95,7.67-8.46,10.76-.37.77-.59,1.47-.59,2.09,0,1.25.88,2.69,2.18,4.23,1.36,1.67,3.2,3.46,4.94,5.23Z"/>
<path class="bulb-path" d="m698.96,845.41c-.34-.35-.64-.7-.92-1.04l-198.03,19.67c-2.96,2.83-7.33,5.75-8.92,8.5-.41.66-.63,1.32-.63,1.98,0,.84.41,1.79,1.07,2.82,1.45,2.29,4.22,4.9,6.67,7.41l201.32-12.78c.33-.37.66-.73.98-1.08,2.7-3.05,5.8-5.87,8.01-9.29.89-1.32,1.66-2.83,1.66-4.48,0-2.2-7.19-7.46-11.21-11.71Z"/>
<path class="bulb-path" d="m701.5,882.31c-1.29-1.1-2.5-2.17-3.32-3.19-.18-.22-.33-.43-.46-.64l-198.22,18.85c-.54.57-1.1,1.13-1.67,1.68-2.32,2.31-4.76,4.47-6.42,7.27-1.14,1.87-1.07,3.49-.22,5.43,1.03,2.42,4.33,5.83,6.98,9.16l200.22-14.79c3.12-3.59,10.27-7.79,11.56-12.02.14-.4.22-.84.22-1.28,0-1.21-.59-2.42-1.48-3.67-1.74-2.32-4.68-4.63-7.19-6.8Z"/>
<path class="bulb-path" d="m557.88,979.48c5.27,3.23,7.63,4.63,12.61,6.5,5.97,2.24,11.95,3.9,17.96,4.85,5.64.88,11.24,1.02,16.96.55,2.85-.22,5.68-.63,8.52-1.18,12.5-2.42,21.25-6.13,32.38-12.12,3.1-1.67,5.17-3.04,7.35-4.54h-104.97c3.01,2.13,5.07,3.54,9.18,5.93Z"/>
<path class="bulb-path" d="m708.77,924.15c-2.47-3.78-7.57-8.18-10.2-11.66l-197.29,20.81c-.05.69,0,1.38.28,2.04.55,1.17,2.25,2.93,4.35,5.14,2.1,2.2,5.2,4.96,8.37,8.15,5.92,6,12.28,11.59,19.02,16.69h134.97c10.36-6.98,20.2-14.74,29.35-23.21,5.79-5.37,9.88-9.81,11.62-12.35.74-1.14,1.11-1.97.7-3.3-.26-.73-.66-1.51-1.18-2.31Z"/>
<path class="bulb-path" d="m710.1,745.3c0-71.48,147.81-164.67,147.81-318.66,0-142.29-115.35-257.64-257.64-257.64s-257.64,115.35-257.64,257.64c0,153.99,147.81,247.17,147.81,318.66,0,2.07.05,4.06.13,5.97h-2.6c1.18,1.84,1.84,9.08,2.21,13.69.84,11.35-.22,28.76.3,40.77.07,1.76.92,3.49,2.14,5.14,1.46,2.03,3.47,3.96,5.32,5.75l201.66-10.24c.19-.19.38-.37.55-.54,2.58-2.57,5.45-4.84,7.93-7.49.89-.95,2.11-2.2,2.11-3.56,0-2.39-1.18-18.36.1-30.19.48-4.33,1.37-8.33,2.73-11.78.23-.73.36-1.02.99-1.54h-4.03c.08-1.92.13-3.91.13-5.99Zm-20.71,0h-178.25c0-35.84-26.53-71.4-57.25-112.58-20.53-27.52-43.8-58.7-61.37-93.2-19.64-38.56-29.19-75.49-29.19-112.88,0-63.29,24.65-122.79,69.4-167.54,44.75-44.75,104.25-69.4,167.54-69.4s122.79,24.65,167.54,69.4c44.75,44.75,69.4,104.25,69.4,167.54,0,37.4-9.55,74.32-29.18,112.88-17.57,34.5-40.84,65.68-61.37,93.2-30.72,41.17-57.25,76.74-57.25,112.58Z"/>
<path class="bulb-path" d="m561.5,770.86c-4.07-3.26-8.26-6.52-12.56-9.79,20.42-82.04,20.24-234.37-81.87-302.52,4.57-4.45,9.28-8.89,14.12-13.34,111.49,74.33,104.69,236.18,80.32,325.65Z"/>
<path class="bulb-path" d="m640.92,774.58c4.02-3.17,8.15-6.34,12.4-9.51-19.86-82.87-18.31-234.98,84.45-301.96-4.42-4.52-8.96-9.05-13.64-13.57-112.37,73.06-107.11,234.66-83.21,325.04Z"/>
<path class="bulb-path" d="m552.81,497.04c-.45,0-.9,0-1.37-.05-7.13-.5-13.17-4.79-16.63-11.75-4.38-8.88-6.59-20.68-5.48-31.6.64-6.2,2.29-11.71,4.83-16.31-11.85-7.26-22.75-10.14-31.88-8.66-21.24,3.48-21.01,16.29-21.09,16.55-4.84,4.45-9.54,8.89-14.12,13.34.07-1.2,4.77-32.52,31.94-36.89,11.94-1.94,25.56,1.27,39.58,9.52,1.65-1.71,3.43-3.21,5.43-4.44,6.44-4.05,18.17-7.38,34.97-.35,8.3,3.48,14.97,7.6,20.31,11.82,2.51-2.62,5.39-5.17,8.56-7.68,13.95-10.96,28.26-15.11,41.08-12.37,6.28,1.35,11.88,4.27,16.67,8.76,7.47-4.61,15.86-7.58,24.38-8.69,11.63-1.52,23.07.39,33.48,5.61,22.73,11.41,14.27,38.33,14.29,39.28-4.42-4.52-8.96-9.05-13.64-13.57-.13-.2,11.85-10.08-6.89-19.63-19.54-9.77-37.09-3.28-46.47,2.78.84,1.16,1.66,2.4,2.46,3.68,4.17,6.89,7.14,15.65,8,23.45.71,6.41-.59,13.84-3.39,20.4-3.26,7.51-8.03,12.69-13.47,14.55-5.03,1.71-12.41,1.47-20.63-9.25-10.17-13.2-4.69-37.43,14.69-53.41-3.55-3.43-7.79-5.99-12.67-7.06-9-1.94-19.72,1.57-31.01,10.4-3.58,2.84-6.6,5.61-9.13,8.32,3.13,3.05,5.57,6.03,7.44,8.63,6.97,9.66,10.14,19.87,9.26,28.03-.71,6.84-4.24,11.72-9.85,13.72-7.04,2.57-14.98.07-20.59-6.36-5.48-6.28-7.97-15.19-6.45-24.5,1.03-6.31,3.87-12.71,8.63-18.92-5.03-4.19-11.46-8.31-19.59-11.75-9.66-4.09-17.65-4.17-23.89-.24-1.61.98-3.07,2.24-4.4,3.74,1.44,1.05,2.91,2.13,4.39,3.29,11.2,8.79,18.14,17.66,21.14,26.32,3.29,9.49,1.16,16.34-1.04,20.41-3.68,6.72-10.51,10.9-17.83,10.9Zm-10.88-54.43c-1.7,3.56-2.82,7.71-3.37,12.29-1.14,9.84.6,20.43,4.35,28.24,2,4.09,5,6.45,8.55,6.72,4.32.29,8.77-2.5,11.14-6.92,1.79-3.81,7.62-17.93-18.64-38.76-.67-.54-1.35-1.06-2.02-1.57Zm121.59-4.38c-6.51,5.89-11.44,13.23-13.95,20.73-3.04,9.03-2.32,17.22,1.68,22.45,3.92,5.13,7.76,7.65,10.47,6.74,5.59-1.89,11.81-15.29,10.35-26.92-.87-6.77-3.59-15.68-8.55-22.99Zm-63.18,12.1c-10.39,15.5-5.96,27.94-1.4,33.31,2.44,2.8,6.33,5.32,10.15,3.95,3.39-1.21,4.26-5.28,4.44-7.56.59-6.72-2.43-15.72-8.53-24.09-1.27-1.72-2.82-3.63-4.66-5.61Z"/>
<path class="bulb-path" d="m639.67,759.88c0,9.36-13.07,16.94-29.19,16.94h-18.59c-16.12,0-29.19-7.59-29.19-16.94v-112.94c0-9.36,13.07-16.94,29.19-16.94h18.59c16.12,0,29.19,7.59,29.19,16.94v112.94Z"/>
    
</svg>