<svg xmlns="http://www.w3.org/2000/svg" width="210" height="206.493" viewBox="0 0 150 154.87"><g style="stroke-width:.281805"><path d="M76.058 100.69v32.108c0 3.596 2.478 5.595 5.108 5.595 2.432 0 5.108-1.703 5.108-5.595v-31.864c0-3.291-2.432-5.351-5.108-5.351s-5.108 2.272-5.108 5.108m0 0" style="fill:#f8ab00;fill-opacity:1;fill-rule:nonzero;stroke:none;stroke-width:.281805" transform="matrix(3.54856 0 0 3.54856 -174.95 -339.18)"/><path d="M62.68 116.988v15.81c0 3.596 2.478 5.595 5.108 5.595 2.432 0 5.108-1.703 5.108-5.595v-15.567c0-3.291-2.433-5.351-5.108-5.351-2.676 0-5.108 2.273-5.108 5.108M59.518 133.285a5.11 5.11 0 0 1-5.108 5.108 5.11 5.11 0 0 1-5.108-5.108 5.11 5.11 0 0 1 5.108-5.108 5.11 5.11 0 0 1 5.108 5.108" style="fill:#e37300;fill-opacity:1;fill-rule:nonzero;stroke:none;stroke-width:.281805" transform="matrix(3.54856 0 0 3.54856 -174.95 -339.18)"/></g></svg>