<svg xmlns="http://www.w3.org/2000/svg" xml:space="preserve" style="fill-rule:evenodd;clip-rule:evenodd;stroke-linejoin:round;stroke-miterlimit:2" viewBox="0 0 512 512"><g style="display:inline"><path d="M0-19.49c0-5.891 2.386-11.653 6.553-15.815A22.22 22.22 0 0 1 22.37-41.86c5.973 0 11.589 2.328 15.823 6.562 4.16 4.155 6.545 9.917 6.545 15.808V0c0 5.89-2.385 11.652-6.553 15.815a22.22 22.22 0 0 1-15.817 6.555c-5.972 0-11.589-2.328-15.823-6.563C2.386 11.652 0 5.89 0 0Zm22.37 71.86c13.988 0 27.139-5.45 37.023-15.338C69.145 27.292 74.738 13.794 74.738 0v-19.49c0-13.795-5.593-27.293-15.337-37.025C49.509-66.41 36.357-71.86 22.368-71.86c-13.987 0-27.139 5.45-37.023 15.337C-24.407-46.783-30-33.285-30-19.49V0c0 13.794 5.593 27.292 15.337 37.025C-4.771 46.92 8.381 52.37 22.37 52.37" style="fill-rule:nonzero" transform="translate(233.63 169.81)"/><path d="M0 122.39c-34.958 0-67.477-15.064-90.078-41.527C-85.225 35.092-46.674 0 0 0s85.225 35.092 90.078 80.863C67.476 107.326 34.958 122.39 0 122.39M83.398 3.515C60.838-18.097 31.22-30 0-30S-60.838-18.097-83.398 3.515c-22.487 21.542-35.651 50.487-37.066 81.501a15 15 0 0 0 3.141 9.889C-88.929 131.437-46.167 152.39 0 152.39s88.928-20.952 117.323-57.485a15 15 0 0 0 3.141-9.889c-1.415-31.014-14.579-59.959-37.066-81.501" style="fill-rule:nonzero" transform="translate(256 268.99)"/><path d="M0 386.006v-3.013c0-8.284-6.716-15-15-15s-15 6.716-15 15v3.013c-94.808-7.3-170.705-83.196-178.005-178.003h3.016c8.284 0 15-6.716 15-15 0-8.285-6.716-15-15-15h-3.016C-200.705 83.196-124.808 7.299-30 0v3.012c0 8.285 6.716 15 15 15s15-6.715 15-15V0c94.808 7.299 170.705 83.196 178.005 178.003h-3.016c-8.284 0-15 6.715-15 15s6.716 15 15 15h3.016C170.705 302.81 94.808 378.706 0 386.006m226.001-208.003h-17.934C200.653 66.649 111.355-22.649 0-30.063v-17.934c0-8.285-6.716-15-15-15s-15 6.715-15 15v17.934c-111.355 7.414-200.653 96.712-208.067 208.066H-256c-8.284 0-15 6.715-15 15s6.716 15 15 15h17.933C-230.653 319.357-141.355 408.654-30 416.068v17.935c0 8.284 6.716 15 15 15s15-6.716 15-15v-17.935c111.355-7.414 200.653-96.711 208.067-208.065h17.934c8.284 0 15-6.716 15-15 0-8.285-6.716-15-15-15" style="fill-rule:nonzero" transform="translate(271 63)"/></g></svg>