<?xml version="1.0" ?><svg id="Layer_1" style="enable-background:new 0 0 24 24;" version="1.1" viewBox="0 0 24 24" xml:space="preserve" xmlns="http://www.w3.org/2000/svg" xmlns:xlink="http://www.w3.org/1999/xlink"><style type="text/css">
	.st0{fill:none;stroke:#000000;stroke-width:1.6724;stroke-linecap:round;stroke-linejoin:round;stroke-miterlimit:10;}
	.st1{fill:none;stroke:#000000;stroke-width:1.5;stroke-linecap:round;stroke-linejoin:round;stroke-miterlimit:10;}
	.st2{fill:none;stroke:#000000;stroke-width:1.5;stroke-linejoin:round;stroke-miterlimit:10;}
</style><g><path class="st1" d="M12,18.5c-3.6,0-6.5-2.9-6.5-6.5c0-3.6,2.9-6.5,6.5-6.5c3.6,0,6.5,2.9,6.5,6.5C18.5,15.6,15.6,18.5,12,18.5z"/><path class="st1" d="M12,14.2c-1.2,0-2.2-1-2.2-2.2c0-1.2,1-2.2,2.2-2.2c1.2,0,2.2,1,2.2,2.2C14.2,13.2,13.2,14.2,12,14.2z"/><g><path class="st1" d="M22.9,13c-6.2,7.3-15.5,7.3-21.7,0c-0.5-0.6-0.5-1.5,0-2.1c6.2-7.3,15.5-7.3,21.7,0    C23.4,11.5,23.4,12.4,22.9,13z"/></g></g></svg>