<?xml version="1.0" encoding="utf-8" ?>
<svg xmlns="http://www.w3.org/2000/svg" xmlns:xlink="http://www.w3.org/1999/xlink" width="689" height="689">
	<path fill="#3C3F41" transform="scale(0.672852 0.672852)" d="M513.334 285.951C524.89 291.368 535.822 298.118 547.049 304.176C557.573 309.855 568.596 314.944 578.797 321.158C575.528 325.93 572.734 330.458 571.652 336.228C561.149 331.008 550.924 324.96 540.621 319.338C529.268 313.143 517.748 307.321 506.614 300.731C510.07 296.08 511.997 291.554 513.334 285.951Z"/>
	<path fill="#3C3F41" transform="scale(0.672852 0.672852)" d="M220.608 427.412C225.91 429.996 230.774 433.401 235.716 436.601Q247.946 444.43 259.97 452.571L311.859 486.726C308.244 490.593 304.765 494.952 303.186 500.084C296.335 496.89 290.227 491.413 283.811 487.365Q247.822 464.287 212.21 440.63C216.117 436.74 218.321 432.365 220.608 427.412Z"/>
	<path fill="#3C3F41" transform="scale(0.672852 0.672852)" d="M178.177 387.58L178.022 327.993C178.012 319.655 176.918 308.747 178.215 300.751C178.736 297.542 179.96 294.37 182.214 291.969C184.269 289.78 186.825 288.654 189.828 288.654C193.407 288.654 197.724 289.87 200.293 292.477C202.197 294.411 203.346 296.927 203.76 299.595C205.122 308.382 204.153 319.064 204.139 328.031L203.972 388.415C198.306 386.464 192.35 384.228 186.254 385.457C183.762 385.96 181.391 387.009 178.896 387.456L178.177 387.58Z"/>
	<path fill="#F3625C" transform="scale(0.672852 0.672852)" d="M178.177 387.58L178.896 387.456C181.391 387.009 183.762 385.96 186.254 385.457C192.35 384.228 198.306 386.464 203.972 388.415L206.04 389.461C212.782 392.862 219.021 400.274 221.264 407.487C223.331 414.134 222.736 420.883 220.608 427.412C218.321 432.365 216.117 436.74 212.21 440.63C209.72 442.604 207.197 444.314 204.484 445.967C195.087 449.495 188.474 449.457 178.941 446.446C173.616 443.517 168.814 440.273 165.082 435.388C160.249 429.06 158.413 421.116 159.479 413.275C160.494 405.806 164.522 397.496 170.464 392.787C172.757 390.969 175.41 389.743 177.674 387.979L178.177 387.58Z"/>
	<path fill="#F3625C" transform="scale(0.672852 0.672852)" d="M457.433 301.212C456.956 300.287 456.164 299.459 455.533 298.623C450.264 291.651 448.339 284.35 449.586 275.716Q449.692 274.965 449.836 274.22Q449.98 273.475 450.161 272.738Q450.342 272.001 450.56 271.274Q450.778 270.547 451.032 269.833Q451.287 269.118 451.577 268.416Q451.867 267.715 452.192 267.03Q452.517 266.344 452.876 265.676Q453.235 265.007 453.627 264.358Q454.02 263.708 454.444 263.079Q454.869 262.451 455.324 261.844Q455.78 261.237 456.266 260.654Q456.752 260.071 457.266 259.514Q457.78 258.956 458.322 258.425Q458.864 257.894 459.432 257.39Q460 256.887 460.593 256.413Q461.185 255.939 461.801 255.496C468.943 250.261 478.248 247.535 487.064 248.939Q487.834 249.062 488.598 249.223Q489.361 249.384 490.115 249.582Q490.87 249.781 491.614 250.016Q492.357 250.251 493.089 250.523Q493.82 250.794 494.537 251.102Q495.254 251.409 495.955 251.751Q496.656 252.093 497.34 252.469Q498.023 252.846 498.687 253.255Q499.351 253.664 499.994 254.106Q500.637 254.548 501.258 255.02Q501.878 255.493 502.475 255.996Q503.071 256.499 503.642 257.03Q504.213 257.562 504.758 258.12Q505.302 258.679 505.818 259.264Q506.334 259.85 506.82 260.459Q507.307 261.069 507.763 261.702C513.05 269.041 514.75 277.069 513.334 285.951C511.997 291.554 510.07 296.08 506.614 300.731C506.312 300.877 505.987 300.984 505.707 301.169C504.351 302.068 503.087 303.669 501.815 304.744C495.774 309.848 489.541 312.353 481.544 311.922Q476.399 311.619 471.442 310.207C466.093 308.076 461.428 305.434 457.433 301.212Z"/>
	<path fill="#F3625C" transform="scale(0.672852 0.672852)" d="M311.859 486.726Q312.689 485.979 313.552 485.269C320.542 479.555 329.398 476.608 338.42 477.898C340.658 478.219 342.853 479.219 345.091 479.352C345.28 479.363 345.471 479.351 345.661 479.351C350.979 481.201 355.045 484.094 358.92 488.141C364.672 493.76 368.25 501.128 368.378 509.269C368.509 517.672 364.171 526.935 358.315 532.853Q357.737 533.428 357.131 533.975Q356.526 534.521 355.894 535.036Q355.262 535.552 354.605 536.036Q353.948 536.52 353.269 536.971Q352.589 537.421 351.888 537.838Q351.187 538.255 350.466 538.636Q349.745 539.018 349.006 539.363Q348.267 539.709 347.512 540.017Q346.757 540.326 345.988 540.597Q345.219 540.868 344.437 541.1Q343.655 541.333 342.863 541.527Q342.071 541.721 341.27 541.875Q340.469 542.029 339.661 542.144Q338.854 542.259 338.042 542.333Q337.229 542.408 336.415 542.442Q335.6 542.477 334.784 542.471C325.65 542.403 317.281 538.379 311.002 531.835C304.918 525.493 301.86 517.441 302.06 508.668C302.126 505.795 302.588 502.889 303.186 500.084C304.765 494.952 308.244 490.593 311.859 486.726Z"/>
	<path fill="#3C3F41" transform="scale(0.672852 0.672852)" d="M457.433 301.212C461.428 305.434 466.093 308.076 471.442 310.207Q430.477 373.235 390.881 437.131C380.326 454.172 369.05 470.854 358.92 488.141C355.045 484.094 350.979 481.201 345.661 479.351C350.097 470.555 356.132 462.071 361.268 453.619C375.597 430.044 390.547 406.908 405.248 383.573L436.892 333.828C443.605 323.048 449.638 311.219 457.433 301.212Z"/>
	<path fill="#F3625C" transform="scale(0.672852 0.672852)" d="M578.797 321.158Q579.948 319.817 581.236 318.608Q582.524 317.399 583.935 316.336Q585.346 315.273 586.864 314.368Q588.381 313.462 589.987 312.726C599.689 308.312 608.311 309.397 618.082 312.997C623.239 315.535 627.415 318.121 630.911 322.844C636.134 330.437 638.833 338.152 637.104 347.469C635.483 356.203 630.276 364.628 622.853 369.581C615.289 374.629 605.247 376.381 596.379 374.539Q595.609 374.382 594.849 374.188Q594.088 373.993 593.337 373.761Q592.587 373.529 591.849 373.261Q591.11 372.993 590.386 372.688Q589.662 372.384 588.954 372.045Q588.246 371.705 587.555 371.331Q586.865 370.957 586.193 370.55Q585.522 370.142 584.871 369.703Q584.22 369.263 583.592 368.791Q582.964 368.32 582.36 367.818Q581.755 367.316 581.176 366.786Q580.598 366.255 580.046 365.696Q579.493 365.138 578.969 364.552Q578.445 363.967 577.951 363.357Q577.456 362.747 576.992 362.113Q576.528 361.48 576.096 360.824C571.579 353.924 569.711 344.878 571.508 336.786C571.549 336.598 571.604 336.414 571.652 336.228C572.734 330.458 575.528 325.93 578.797 321.158Z"/>
	<path fill="#3C3F41" transform="scale(0.672852 0.672852)" d="M715.923 168.455C729.448 165.008 743.021 161.458 756.45 157.655C764.969 155.242 773.344 152.353 781.994 150.426C775.849 170.665 767.078 194.704 763.129 215.16C757.842 210.264 753.128 204.841 748.274 199.526C722.536 227.373 695.932 254.388 669.75 281.816Q657.378 294.799 645.142 307.912C640.511 312.869 635.985 318.351 630.911 322.844C627.415 318.121 623.239 315.535 618.082 312.997C623.426 306.581 629.475 300.8 635.199 294.728Q649.974 278.744 665.054 263.047Q700.44 225.314 736.382 188.108C729.542 181.628 722.504 175.19 715.923 168.455Z"/>
	<path fill="#1A837C" transform="scale(0.672852 0.672852)" d="M264.955 630.462Q287.526 630.378 310.097 630.569C311.414 633.246 310.561 661.203 310.564 666.781L310.929 798.948L310.976 833.782C310.991 839.015 311.772 845.875 310.699 850.892C301.502 850.427 292.208 850.726 282.999 850.745C277.278 850.757 271.233 850.302 265.561 850.984C264.824 851.894 264.948 851.858 264.831 852.933C263.64 846.949 264.46 839.207 264.465 833.075L264.484 793.348L264.955 630.462Z"/>
	<path fill="#6AD0C6" transform="scale(0.672852 0.672852)" d="M309.582 572.198Q331.335 572.306 353.088 572.131C352.808 582.748 353.193 593.416 353.253 604.039L353.395 661.139L353.399 850.464C353.364 851.89 353.575 853.614 352.755 854.836C348.886 855.635 344.586 855.244 340.644 855.223C330.782 855.17 320.346 854.53 310.551 855.363L310.699 850.892C311.772 845.875 310.991 839.015 310.976 833.782L310.929 798.948L310.564 666.781C310.561 661.203 311.414 633.246 310.097 630.569C309.22 611.187 309.981 591.615 309.582 572.198Z"/>
	<path fill="#1A837C" transform="scale(0.672852 0.672852)" d="M353.088 572.131Q376.296 572.033 399.502 572.389C398.845 637.226 399.411 702.143 399.531 766.986L399.667 820.295C399.705 830.383 400.032 840.567 399.668 850.645C384.253 850.248 368.813 850.935 353.399 850.464L353.395 661.139L353.253 604.039C353.193 593.416 352.808 582.748 353.088 572.131Z"/>
	<path fill="#6C777A" transform="scale(0.672852 0.672852)" d="M441.524 508.756Q466.08 508.663 490.636 508.818C491.069 515.855 490.761 522.968 490.707 530.018L490.585 562.615L490.642 675.012L490.564 802.03L490.495 835.883C490.496 842.11 490.758 848.475 490.378 854.683C490.227 853.139 490.046 851.7 489.653 850.198Q466.036 850.489 442.417 850.53C442.479 847.507 443.162 842.062 441.478 839.483C440.414 833.012 441.345 823.197 441.369 816.456C441.436 798.224 441.62 779.977 441.467 761.746L441.524 508.756Z"/>
	<path fill="#6C777A" transform="scale(0.672852 0.672852)" d="M535.215 472.36L535.775 471.558C540.91 470.956 546.59 471.369 551.789 471.344Q567.237 471.211 582.685 471.292C583.556 475.69 583.054 480.853 583.049 485.346L583.036 510.092L583.008 607.756L583.029 777.802L582.999 828.305C582.996 837.232 583.469 846.52 582.756 855.407C582.468 853.894 582.7 852.557 581.974 851.142C566.569 849.727 550.739 852.084 535.341 850.787L534.879 850.744C534.611 835.356 534.953 819.917 534.978 804.522L535.081 706.853L535.215 472.36Z"/>
	<path fill="#6C777A" transform="scale(0.672852 0.672852)" d="M626.401 409.51L672.549 409.45L672.74 723.869L672.859 814.944C672.859 823.585 673.901 843.509 672.686 851.003L627.387 850.951C627.377 848.82 627.359 846.72 627.172 844.594L627.1 847.992L626.504 847.971C626.028 826.92 626.493 805.764 626.452 784.701L626.373 632.869C626.359 604.449 626.673 575.937 626.081 547.528C627.056 531.191 626.412 514.461 626.407 498.089L626.401 409.51Z"/>
	<path fill="#1A837C" transform="scale(0.672852 0.672852)" d="M819.15 257.593L850.159 257.442L850.45 850.166L821.472 850.169C816.592 850.151 810.929 849.552 806.174 850.346C805.843 851.942 805.911 853.46 805.953 855.076L805.578 855.057L805.551 257.789C810.088 257.815 814.62 257.887 819.15 257.593Z"/>
	<path fill="#3C3F41" transform="scale(0.672852 0.672852)" d="M178.941 446.446C188.474 449.457 195.087 449.495 204.484 445.967L204.356 854.577C224.467 854.554 244.668 854.216 264.767 854.739L264.831 852.933C264.948 851.858 264.824 851.894 265.561 850.984C271.233 850.302 277.278 850.757 282.999 850.745C292.208 850.726 301.502 850.427 310.699 850.892L310.551 855.363C320.346 854.53 330.782 855.17 340.644 855.223C344.586 855.244 348.886 855.635 352.755 854.836C353.575 853.614 353.364 851.89 353.399 850.464C368.813 850.935 384.253 850.248 399.668 850.645C399.655 852.23 399.54 853.674 400.182 855.163C404.61 855.917 409.796 855.344 414.341 855.313L441.043 855.232C441.396 850.001 441.379 844.726 441.478 839.483C443.162 842.062 442.479 847.507 442.417 850.53Q466.036 850.489 489.653 850.198C490.046 851.7 490.227 853.139 490.378 854.683C490.542 854.891 490.572 854.96 490.864 855.116C491.675 855.552 531.31 855.631 534.272 855.146C535.227 853.859 534.925 852.266 534.879 850.744L535.341 850.787C550.739 852.084 566.569 849.727 581.974 851.142C582.7 852.557 582.468 853.894 582.756 855.407C597.324 855.158 611.92 855.41 626.491 855.491L626.504 847.971L627.1 847.992L627.172 844.594C627.359 846.72 627.377 848.82 627.387 850.951L672.686 851.003L672.542 855.527C687.118 853.972 702.31 856.555 716.906 855.21C717.752 854.064 717.518 852.553 717.591 851.144L718.154 851.097C725.084 850.955 758.226 849.982 762.802 851.101C762.968 852.468 763.066 853.745 763.059 855.121L763.442 855.115C768.254 855.894 800.82 855.892 805.578 855.057L805.953 855.076C805.911 853.46 805.843 851.942 806.174 850.346C810.929 849.552 816.592 850.151 821.472 850.169L850.45 850.166L850.531 854.752C865.503 854.435 880.512 854.755 895.492 854.68C904.997 854.632 915.417 853.747 924.815 854.806C927.524 855.112 930.234 855.938 932.503 857.484Q933.034 857.846 933.524 858.262Q934.014 858.678 934.458 859.142Q934.902 859.607 935.295 860.115Q935.688 860.624 936.026 861.171Q936.364 861.717 936.642 862.297Q936.921 862.876 937.138 863.481Q937.354 864.086 937.507 864.71Q937.659 865.334 937.745 865.971Q937.841 866.629 937.87 867.294Q937.899 867.958 937.861 868.622Q937.823 869.286 937.719 869.943Q937.615 870.6 937.445 871.243Q937.275 871.886 937.041 872.508Q936.808 873.131 936.513 873.727Q936.218 874.323 935.865 874.886Q935.511 875.45 935.103 875.975C932.498 879.342 929.355 880.358 925.262 880.775C915.558 881.763 905.163 881.059 895.396 881.058L838.294 881.13L638.875 881.035L285.911 880.915L155.172 880.993C137.549 880.994 119.822 881.494 102.221 881.199C97.9584 881.128 93.7759 880.228 90.467 877.384Q89.9284 876.926 89.4404 876.415Q88.9525 875.903 88.5204 875.344Q88.0883 874.784 87.7168 874.183Q87.3453 873.582 87.0384 872.945Q86.7315 872.308 86.4926 871.643Q86.2537 870.977 86.0854 870.291Q85.917 869.604 85.8211 868.904Q85.7251 868.204 85.7026 867.497Q85.687 866.88 85.7361 866.264Q85.7851 865.648 85.8982 865.041Q86.0114 864.434 86.1873 863.842Q86.3633 863.25 86.6002 862.679Q86.8371 862.109 87.1322 861.566Q87.4274 861.024 87.7777 860.515Q88.128 860.006 88.5295 859.537Q88.931 859.068 89.3794 858.643C91.8496 856.295 94.7997 855.161 98.1315 854.669C106.6 853.418 116.371 854.393 124.966 854.448L178.742 854.696L178.941 446.446Z"/>
	<path fill="#6AD0C6" transform="scale(0.672852 0.672852)" d="M763.39 257.476Q779.586 257.779 795.785 257.763C803.567 257.694 811.374 257.241 819.15 257.593C814.62 257.887 810.088 257.815 805.551 257.789L805.578 855.057C800.82 855.892 768.254 855.894 763.442 855.115L763.059 855.121C763.066 853.745 762.968 852.468 762.802 851.101C758.226 849.982 725.084 850.955 718.154 851.097L717.591 851.144L717.503 321.111L725.771 321.092C738.129 320.271 750.986 320.997 763.397 321L763.39 257.476Z"/>
	<path fill="#1A837C" transform="scale(0.672852 0.672852)" d="M725.771 321.092C738.207 321.899 750.886 321.457 763.356 321.407L763.413 656.362L763.333 786.912C763.328 809.606 762.73 832.443 763.442 855.115L763.059 855.121C763.066 853.745 762.968 852.468 762.802 851.101C758.226 849.982 725.084 850.955 718.154 851.097L717.591 851.144L717.503 321.111L725.771 321.092Z"/>
</svg>
